<svg width="100" height="100" viewBox="0 0 100 100" fill="none" xmlns="http://www.w3.org/2000/svg">
<g clip-path="url(#clip0_4197_1373)">
<rect width="100" height="100" rx="50" fill="#464FF9"/>
<path d="M100 100H0V0H100V100ZM73.2139 70.1426C69.9994 57.6428 57.1428 49.4284 43.9287 52.6426C35.7145 55.1425 28.9291 61.5713 26.7861 70.1426C26.429 71.214 27.5001 72.6429 28.9287 73H71.0713C72.4999 73 73.571 72.2854 73.2139 70.1426ZM50 23C42.8572 23 37.5 28.7143 37.5 35.5C37.5 42.2857 42.8572 48 50 48C57.1429 48 62.5 42.2857 62.5 35.5C62.5 28.7143 57.1429 23 50 23Z" fill="#A8ACFF"/>
</g>
<defs>
<clipPath id="clip0_4197_1373">
<rect width="100" height="100" rx="50" fill="white"/>
</clipPath>
</defs>
</svg>
