<svg width="100" height="100" viewBox="0 0 100 100" fill="none" xmlns="http://www.w3.org/2000/svg">
<g clip-path="url(#clip0_4255_934)">
<path d="M100 100H0V0H100V100ZM41.9639 33C32.0431 33.0004 24.0004 41.043 24 50.9639C24 60.8844 32.0422 68.9283 41.9639 68.9287H49.585C49.6587 68.9786 49.7444 69.0351 49.8418 69.1025C49.9277 69.162 50.0147 69.2235 50.1143 69.293C50.2102 69.3599 50.3187 69.4356 50.4287 69.5117C50.6478 69.6635 50.9097 69.8426 51.1914 70.0264L51.1924 70.0273L55.4326 72.793V72.792C58.7521 74.9571 63.1134 75.2235 66.7275 73.2021L66.7285 73.2012C70.688 70.9858 72.7336 66.5822 72.0127 62.2441C74.5002 59.1646 76 55.2324 76 50.9639L75.9941 50.5C75.7479 40.7934 67.802 33.0004 58.0361 33H41.9639ZM58.0361 41C63.5389 41.0002 67.9998 45.4611 68 50.9639C68 53.5154 67.0405 55.8423 65.4629 57.6045C64.128 59.0956 63.2606 61.1606 63.9795 63.0283C64.448 64.2457 63.964 65.5809 62.8223 66.2197C61.8944 66.7387 60.7181 66.6889 59.8027 66.0918L55.5625 63.3262C54.0218 62.3209 52.4549 60.9289 50.6152 60.9287H41.9639C36.4609 60.9285 32 56.4669 32 50.9639C32.0002 45.4611 36.4611 41.0002 41.9639 41H58.0361Z" fill="#A8ACFF"/>
</g>
<defs>
<clipPath id="clip0_4255_934">
<rect width="100" height="100" rx="50" fill="white"/>
</clipPath>
</defs>
</svg>
