<svg width="105" height="100" viewBox="0 0 105 100" fill="none" xmlns="http://www.w3.org/2000/svg">
<path d="M65.9023 0C70.6775 0.000358208 75.0412 2.69962 77.1768 6.9707L79.5801 11.7754H95.5078C100.566 11.7754 104.666 15.8756 104.666 20.9336C104.666 25.9915 100.566 30.0918 95.5078 30.0918H92.3232L87.877 87.8955C87.3717 94.4642 81.8927 99.5379 75.3047 99.5381H29.3604C22.7723 99.5379 17.2934 94.4641 16.7881 87.8955L12.3418 30.0918H9.1582C4.10035 30.0917 0.000145161 25.9914 0 20.9336C-3.97963e-07 15.8756 4.10026 11.7755 9.1582 11.7754H25.0869L27.4902 6.9707C29.6258 2.69962 33.9895 0.000361724 38.7646 0H65.9023Z" fill="#A8ACFF"/>
<line x1="34.3946" y1="41.2042" x2="38.5864" y2="83.1227" stroke="#464FF9" stroke-width="10.4667" stroke-linecap="round"/>
<line x1="5.23333" y1="-5.23333" x2="47.3609" y2="-5.23333" transform="matrix(-0.0995037 0.995037 0.995037 0.0995037 74.8999 36.5176)" stroke="#464FF9" stroke-width="10.4667" stroke-linecap="round"/>
</svg>
