<svg width="101" height="100" viewBox="0 0 101 100" fill="none" xmlns="http://www.w3.org/2000/svg">
<g clip-path="url(#clip0_4253_820)">
<path d="M100 100H0V-1H100V100ZM49.7188 41.5C46.6812 41.5 44.2188 43.9624 44.2188 47V71C44.2187 74.0376 46.6812 76.5 49.7188 76.5C52.7562 76.4998 55.2187 74.0375 55.2188 71V47C55.2188 43.9625 52.7562 41.5002 49.7188 41.5ZM50 20C46.134 20 43 23.134 43 27C43 30.866 46.134 34 50 34C53.866 34 57 30.866 57 27C57 23.134 53.866 20 50 20Z" fill="#A8ACFF"/>
</g>
<defs>
<clipPath id="clip0_4253_820">
<rect width="100.122" height="100" rx="50" fill="white"/>
</clipPath>
</defs>
</svg>
