<svg width="100" height="100" viewBox="0 0 100 100" fill="none" xmlns="http://www.w3.org/2000/svg">
<g clip-path="url(#clip0_4062_797)">
<path d="M50 0C22.43 0 0 22.4303 0 50.0003C0 77.5703 22.43 100 50 100C77.57 100 100 77.5703 100 50.0003C100 22.4303 77.57 0 50 0ZM50 90.9091C27.4424 90.9091 9.09091 72.5576 9.09091 50.0003C9.09091 27.443 27.4424 9.09091 50 9.09091C72.5576 9.09091 90.9091 27.443 90.9091 50.0003C90.9091 72.5576 72.5573 90.9091 50 90.9091Z" fill="#190451"/>
<path d="M49.9994 21.2121C46.6582 21.2121 43.94 23.9321 43.94 27.2755C43.94 30.6158 46.6582 33.3333 49.9994 33.3333C53.3406 33.3333 56.0588 30.6158 56.0588 27.2755C56.0588 23.9321 53.3406 21.2121 49.9994 21.2121Z" fill="#190451"/>
<path d="M50 42.4242C47.4897 42.4242 45.4545 44.4594 45.4545 46.9697V74.2424C45.4545 76.7527 47.4897 78.7879 50 78.7879C52.5103 78.7879 54.5454 76.7527 54.5454 74.2424V46.9697C54.5454 44.4594 52.5103 42.4242 50 42.4242Z" fill="#190451"/>
</g>
<defs>
<clipPath id="clip0_4062_797">
<rect width="100" height="100" fill="white"/>
</clipPath>
</defs>
</svg>
