<svg width="101" height="100" viewBox="0 0 101 100" fill="none" xmlns="http://www.w3.org/2000/svg">
<g clip-path="url(#clip0_4261_977)">
<path d="M100 100H0V-1H100V100ZM49.7188 40.5C47.2335 40.5 45.2188 42.5147 45.2188 45V70C45.2188 72.4853 47.2335 74.5 49.7188 74.5C52.2039 74.4998 54.2187 72.4852 54.2188 70V45C54.2188 42.5148 52.2039 40.5002 49.7188 40.5ZM50 21C46.6863 21 44 23.6863 44 27C44 30.3137 46.6863 33 50 33C53.3137 33 56 30.3137 56 27C56 23.6863 53.3137 21 50 21Z" fill="#A8ACFF"/>
</g>
<defs>
<clipPath id="clip0_4261_977">
<rect width="100.122" height="100" rx="50" fill="white"/>
</clipPath>
</defs>
</svg>
