<svg width="100" height="100" viewBox="0 0 100 100" fill="none" xmlns="http://www.w3.org/2000/svg">
<g clip-path="url(#clip0_4255_852)">
<path d="M100 100H0V0H100V100ZM49.793 36.4561C45.5906 36.4561 41.5592 38.1201 38.5801 41.084L38.5791 41.085C37.1207 42.5402 35.9722 44.2761 35.2031 46.1875C34.4349 48.0967 34.0614 50.1418 34.1045 52.1992L34.1035 52.2002C34.1663 56.2158 35.7117 60.1751 38.4316 63.3574L39.2803 64.3506L39.2871 64.3584L39.2939 64.3652C39.6282 64.7411 39.8087 65.2296 39.7988 65.7324L39.7979 65.7422V70.2598C39.7987 71.0921 40.0355 71.9078 40.4805 72.6113C40.8076 73.1285 41.2387 73.5687 41.7422 73.9082V74.4268C41.7439 75.9042 42.3313 77.3215 43.376 78.3662C44.4206 79.4108 45.8371 79.9982 47.3145 80H52.4189C53.8965 79.9984 55.3136 79.4109 56.3584 78.3662C57.4031 77.3215 57.9904 75.9042 57.9922 74.4268V73.8047C58.4617 73.4595 58.8605 73.0239 59.1621 72.5205C59.5712 71.8376 59.7874 71.0559 59.7881 70.2598V65.7324C59.7783 65.2295 59.9587 64.7411 60.293 64.3652L60.2998 64.3584L60.3057 64.3506L61.1553 63.3574C63.8743 60.1765 65.4182 56.22 65.4824 52.2061C65.5265 50.1463 65.1528 48.0988 64.3838 46.1875C63.6147 44.2762 62.4662 42.5402 61.0078 41.085L61.0068 41.084L60.7246 40.8096C57.7756 38.0173 53.8642 36.4561 49.793 36.4561ZM44.083 77.6582C44.1901 77.7653 44.3019 77.8668 44.418 77.9619V77.9629C44.3018 77.8677 44.1901 77.7663 44.083 77.6592V77.6582ZM43.1816 76.3789C43.3089 76.6478 43.4624 76.9047 43.6406 77.1455V77.1465C43.5515 77.0261 43.4692 76.9013 43.3926 76.7734C43.3159 76.6453 43.2453 76.5137 43.1816 76.3789ZM53.3252 74.9385C53.3178 74.9515 53.3107 74.9648 53.3027 74.9775C53.3107 74.9648 53.3178 74.9515 53.3252 74.9385ZM53.3838 74.8252C53.388 74.8152 53.3896 74.8041 53.3936 74.7939C53.3897 74.8041 53.388 74.8152 53.3838 74.8252ZM53.4365 74.6533C53.4326 74.6701 53.4285 74.6866 53.4238 74.7031C53.4285 74.6866 53.4326 74.6701 53.4365 74.6533ZM49.793 41.9707C52.533 41.9707 55.1616 43.0573 57.1016 44.9922V44.9932C60.8855 48.7768 60.9328 55.1146 56.9551 59.7686L56.1123 60.7539L55.9316 60.9688C55.0496 62.0603 54.4908 63.3803 54.3223 64.7773L54.3164 64.832L54.3154 64.8867L54.2656 69.8926L52.5762 73.207C52.5046 73.3475 52.4669 73.5035 52.4668 73.6611V74.4131C52.4665 74.4295 52.4598 74.4454 52.4482 74.457C52.4366 74.4685 52.4207 74.4754 52.4043 74.4756H47.3291C47.3127 74.4754 47.2968 74.4685 47.2852 74.457C47.2793 74.4512 47.2746 74.444 47.2715 74.4365L47.2666 74.4131V73.6611C47.2665 73.4925 47.223 73.3264 47.1416 73.1787L45.3203 69.874L45.2705 64.8867V64.832L45.2637 64.7773L45.2246 64.499C45.0045 63.113 44.3985 61.8145 43.4736 60.7539L42.6318 59.7686V59.7676C38.6541 55.1136 38.7004 48.7763 42.4844 44.9922C44.4243 43.0571 47.0529 41.9708 49.793 41.9707ZM44.0146 63.7129C44.0877 63.9432 44.1483 64.1779 44.1953 64.416C44.1483 64.1782 44.0875 63.9439 44.0146 63.7139V63.7129ZM43.7139 62.9424C43.7625 63.0468 43.8097 63.1519 43.8525 63.2588C43.8097 63.1519 43.7625 63.0468 43.7139 62.9424ZM43.6562 62.8184C43.6697 62.8457 43.6813 62.8739 43.6943 62.9014C43.6469 62.8014 43.5983 62.702 43.5459 62.6045V62.6035C43.584 62.6745 43.6208 62.7461 43.6562 62.8184ZM37.9551 61.0752C37.9228 61.027 37.8902 60.9791 37.8584 60.9307C37.8902 60.9791 37.9228 61.027 37.9551 61.0752ZM60.8115 53.7227C60.787 53.8923 60.7605 54.0621 60.7285 54.2314L60.6133 54.7734C60.6953 54.4242 60.7606 54.0734 60.8115 53.7227ZM52.7002 44.2314C52.152 44.0863 51.5714 44.1727 51.0889 44.4668C50.6078 44.7602 50.2676 45.2326 50.1328 45.7734C49.9983 46.3138 50.0767 46.8885 50.3545 47.373C50.6329 47.8585 51.0925 48.2193 51.6396 48.3643H51.6406C52.1182 48.4906 52.5622 48.7315 52.9365 49.0684L53.0928 49.2188C53.8707 50.0215 53.9832 50.9605 53.9268 51.6611C53.8822 52.2159 54.0518 52.7713 54.4072 53.2041C54.7634 53.6376 55.2792 53.9133 55.8438 53.9619V53.9629C55.9043 53.9681 55.9641 53.9707 56.0225 53.9707H56.0234C56.5594 53.9701 57.0704 53.7617 57.4561 53.3955C57.8407 53.0301 58.0728 52.5343 58.1152 52.0098C58.291 49.8259 57.5774 47.7584 56.085 46.2197V46.2188C55.1525 45.2586 53.984 44.5712 52.7002 44.2314ZM60.873 53.2197C60.8592 53.3545 60.8426 53.4892 60.8242 53.624C60.8427 53.4892 60.8592 53.3545 60.873 53.2197ZM60.9229 52.6016C60.9143 52.7674 60.9011 52.9334 60.8857 53.0996C60.9012 52.9334 60.9143 52.7674 60.9229 52.6016ZM55.1807 52.5684C55.2042 52.597 55.229 52.6245 55.2549 52.6504C55.2291 52.6246 55.2041 52.5978 55.1807 52.5693L55.1143 52.4795C55.1348 52.5102 55.1571 52.5397 55.1807 52.5684ZM54.9199 51.8535H54.9189C54.9184 51.8162 54.9198 51.7787 54.9229 51.7412H54.9238C54.9208 51.7787 54.9193 51.8162 54.9199 51.8535ZM54.7861 50.209L54.8379 50.418C54.8108 50.2956 54.776 50.1719 54.7354 50.0469C54.7531 50.1013 54.7711 50.155 54.7861 50.209ZM51.8965 47.3975L52.1641 47.4785C52.0756 47.4485 51.986 47.4214 51.8955 47.3975C51.8603 47.3881 51.8258 47.377 51.792 47.3643C51.826 47.3771 51.8611 47.3881 51.8965 47.3975ZM58.832 45.4736C58.9559 45.6407 59.0756 45.8097 59.1885 45.9824H59.1875C59.0894 45.8322 58.9873 45.684 58.8809 45.5381C58.865 45.5163 58.8481 45.4953 58.832 45.4736ZM58.4883 45.0361C58.52 45.0745 58.5519 45.1126 58.583 45.1514C58.5519 45.1126 58.52 45.0745 58.4883 45.0361ZM41.7773 44.2861C41.6786 44.3849 41.5823 44.4852 41.4883 44.5869L41.2139 44.8955C41.3924 44.6864 41.5799 44.4826 41.7773 44.2852C41.8696 44.1931 41.9655 44.1051 42.0605 44.0166C41.9654 44.1052 41.8697 44.194 41.7773 44.2861ZM58.1396 44.6338C58.18 44.6779 58.2193 44.7229 58.2588 44.7676C58.2193 44.7229 58.18 44.6779 58.1396 44.6338ZM57.8086 44.2852C57.8339 44.3104 57.8569 44.3378 57.8818 44.3633C57.857 44.338 57.8337 44.3112 57.8086 44.2861C57.7814 44.259 57.7531 44.2329 57.7256 44.2061C57.7529 44.2328 57.7815 44.2581 57.8086 44.2852ZM57.2734 43.7881C57.336 43.8429 57.3985 43.8978 57.46 43.9541C57.3985 43.8978 57.336 43.8429 57.2734 43.7881ZM42.4121 43.7031C42.4781 43.6466 42.5422 43.5881 42.6094 43.5332L42.7109 43.4531C42.6101 43.5347 42.5109 43.6185 42.4121 43.7031ZM56.9189 43.4883C56.9736 43.5324 57.0271 43.5779 57.0811 43.623C57.0272 43.5779 56.9736 43.5324 56.9189 43.4883ZM25.9707 33.8994C25.3384 33.5368 24.5869 33.4317 23.8799 33.6143C23.1717 33.7972 22.565 34.2546 22.2002 34.8906C21.8356 35.5266 21.7476 36.2809 21.9473 36.9844C22.1467 37.6868 22.6168 38.2819 23.249 38.6445L29.9492 42.4883C30.2627 42.668 30.6087 42.7858 30.9668 42.835C31.325 42.8841 31.6907 42.864 32.041 42.7734C32.3914 42.6828 32.7212 42.5237 33.0098 42.3047C33.2981 42.0858 33.5395 41.8112 33.7197 41.4971C34.0844 40.8612 34.1732 40.1068 33.9736 39.4033C33.7742 38.7007 33.3032 38.1048 32.6709 37.7422L25.9707 33.8994ZM75.6543 33.6143C74.9472 33.4317 74.1957 33.5368 73.5635 33.8994L66.8633 37.7422C66.231 38.1048 65.76 38.7007 65.5605 39.4033C65.361 40.1068 65.4498 40.8612 65.8145 41.4971C65.9946 41.8112 66.2361 42.0859 66.5244 42.3047C66.813 42.5237 67.1428 42.6828 67.4932 42.7734C67.8434 42.864 68.2083 42.884 68.5664 42.835C68.9246 42.7858 69.2714 42.6681 69.585 42.4883L76.2852 38.6445C76.9174 38.2819 77.3874 37.6868 77.5869 36.9844C77.7866 36.2809 77.6985 35.5266 77.334 34.8906C76.9692 34.2546 76.3625 33.7972 75.6543 33.6143ZM53.6143 41.6328L54.1299 41.832C53.7894 41.6912 53.4419 41.5671 53.0889 41.46C53.2654 41.5135 53.4407 41.5708 53.6143 41.6328ZM50.3555 40.9844C50.3682 40.985 50.3809 40.9857 50.3936 40.9863C50.3805 40.9856 50.3675 40.985 50.3545 40.9844L49.793 40.9707L50.3555 40.9844ZM33.0117 39.6758C33.0267 39.7285 33.0384 39.7816 33.0479 39.835L33.0107 39.6758L32.9551 39.5107C32.9765 39.5647 32.9958 39.6197 33.0117 39.6758ZM67.3604 38.6104C67.3205 38.6332 67.2818 38.6577 67.2441 38.6836C67.2818 38.6575 67.3203 38.6323 67.3604 38.6094L74.0615 34.7666L67.3604 38.6104ZM32.1738 38.6094C32.225 38.6387 32.2746 38.6703 32.3223 38.7041C32.2747 38.6704 32.2249 38.6396 32.1738 38.6104L25.4727 34.7666L32.1738 38.6094ZM76.6602 36.5625L76.625 36.7109C76.6399 36.6583 76.6513 36.605 76.6611 36.5518C76.6605 36.5553 76.6608 36.559 76.6602 36.5625ZM36.3008 24.084C35.6034 23.8638 34.8466 23.9296 34.2002 24.2754C33.5538 24.6214 33.0786 25.2145 32.875 25.917C32.6718 26.6183 32.7548 27.3721 33.0986 28.0146L36.7441 34.8252C36.9147 35.1438 37.1452 35.4277 37.4229 35.6592C37.7006 35.8907 38.0211 36.0669 38.3662 36.1758C38.7115 36.2847 39.0756 36.3248 39.4365 36.292C39.7968 36.2592 40.1467 36.1541 40.4658 35.9834C41.112 35.6375 41.5873 35.045 41.791 34.3428C41.9943 33.6414 41.9112 32.8867 41.5674 32.2441L37.9219 25.4336C37.578 24.7911 36.9969 24.304 36.3008 24.084ZM65.334 24.2754C64.6876 23.9295 63.9308 23.8638 63.2334 24.084C62.5372 24.304 61.9562 24.7911 61.6123 25.4336L57.9668 32.2441C57.623 32.8867 57.5399 33.6414 57.7432 34.3428C57.9469 35.0449 58.4213 35.6375 59.0674 35.9834C59.3867 36.1543 59.7372 36.2592 60.0977 36.292C60.4586 36.3248 60.8227 36.2847 61.168 36.1758C61.513 36.0669 61.8336 35.8907 62.1113 35.6592C62.389 35.4277 62.6195 35.1438 62.79 34.8252L66.4355 28.0146C66.7793 27.3721 66.8623 26.6183 66.6592 25.917C66.4556 25.2145 65.9804 24.6214 65.334 24.2754ZM22.9316 35.6914C22.933 35.6875 22.9342 35.6836 22.9355 35.6797L22.9902 35.541C22.9683 35.5903 22.9487 35.6405 22.9316 35.6914ZM76.4668 35.3877L76.5439 35.541C76.5658 35.5902 76.5845 35.6407 76.6016 35.6914C76.5664 35.5867 76.5215 35.4848 76.4658 35.3877C76.4372 35.3378 76.4063 35.2895 76.373 35.2432C76.4064 35.2896 76.4381 35.3377 76.4668 35.3877ZM59.8691 35.2344C59.9731 35.2644 60.0799 35.286 60.1885 35.2959H60.1875C60.131 35.2907 60.075 35.2822 60.0195 35.2715C59.9689 35.2617 59.9186 35.2487 59.8691 35.2344ZM38.668 35.2217C38.6947 35.2301 38.722 35.2361 38.749 35.2432C38.7218 35.236 38.6939 35.2302 38.667 35.2217C38.6192 35.2066 38.5727 35.188 38.5264 35.1689C38.5728 35.1881 38.62 35.2065 38.668 35.2217ZM60.8672 35.2217C60.8403 35.2302 60.8123 35.236 60.7852 35.2432C60.8122 35.2361 60.8395 35.2301 60.8662 35.2217C60.9139 35.2066 60.9606 35.188 61.0068 35.1689C60.9608 35.1878 60.9147 35.2067 60.8672 35.2217ZM59.668 35.1621C59.6635 35.1602 59.6587 35.1592 59.6543 35.1572L59.54 35.1016C59.5817 35.1239 59.6247 35.1434 59.668 35.1621ZM38.3389 35.0791C38.3302 35.0743 38.3211 35.0704 38.3125 35.0654L38.2021 34.9961C38.2463 35.0262 38.2923 35.0532 38.3389 35.0791ZM61.5684 34.8037L61.4707 34.8916C61.5114 34.8577 61.5494 34.8205 61.5869 34.7832C61.5804 34.7897 61.575 34.7973 61.5684 34.8037ZM37.8096 34.6299C37.804 34.6228 37.7975 34.6165 37.792 34.6094L37.7158 34.5039C37.7449 34.5475 37.7769 34.589 37.8096 34.6299ZM24.4727 34.5293L24.2998 34.5469C24.4104 34.5297 24.5224 34.5235 24.6338 34.5273C24.5801 34.5255 24.5264 34.5263 24.4727 34.5293ZM75.083 34.5293L75.2344 34.5469C75.1233 34.5296 75.0112 34.5235 74.8994 34.5273C74.9606 34.5252 75.0219 34.5251 75.083 34.5293ZM49.7676 19C49.0345 19 48.3362 19.2991 47.8252 19.8223C47.315 20.3448 47.0322 21.0485 47.0322 21.7773V29.502C47.0322 30.2309 47.3149 30.9355 47.8252 31.458C48.3362 31.981 49.0346 32.2793 49.7676 32.2793C50.1296 32.2792 50.4881 32.2066 50.8213 32.0654C51.1548 31.924 51.457 31.7169 51.71 31.458C51.9627 31.1992 52.1623 30.8927 52.2979 30.5576C52.4334 30.2225 52.5029 29.8634 52.5029 29.502V21.7773C52.5029 21.0486 52.2199 20.3447 51.71 19.8223C51.199 19.2991 50.5006 19.0001 49.7676 19ZM51.3711 30.1826L51.2979 30.3408C51.2738 30.3868 51.2466 30.4311 51.2188 30.4746C51.2776 30.3824 51.3287 30.2849 51.3701 30.1826C51.3898 30.134 51.4065 30.0843 51.4219 30.0342C51.4066 30.0842 51.3907 30.1341 51.3711 30.1826ZM51.5029 21.7773V29.502C51.5029 29.5603 51.4997 29.6189 51.4941 29.6768C51.4891 29.7286 51.48 29.7799 51.4707 29.8311C51.4906 29.7229 51.502 29.6126 51.502 29.502V21.7773C51.502 21.7214 51.4992 21.6655 51.4941 21.6104C51.4992 21.6657 51.5029 21.7213 51.5029 21.7773ZM65.6201 27.4043L65.5537 27.543C65.5797 27.4944 65.6017 27.4439 65.623 27.3936C65.6216 27.3969 65.6216 27.4009 65.6201 27.4043ZM65.6494 26.0508L65.6982 26.1953C65.6828 26.142 65.6637 26.0901 65.6436 26.0391C65.6452 26.0431 65.6478 26.0467 65.6494 26.0508ZM36.1621 25.0967C36.2127 25.1183 36.2624 25.1428 36.3105 25.1689C36.2117 25.1153 36.1073 25.0713 35.999 25.0371H36C36.0551 25.0545 36.1093 25.0741 36.1621 25.0967ZM63.5352 25.0371C63.4266 25.0714 63.3217 25.1151 63.2227 25.1689C63.2711 25.1426 63.3212 25.1184 63.3721 25.0967C63.4249 25.0741 63.4791 25.0545 63.5342 25.0371H63.5352Z" fill="#A8ACFF"/>
</g>
<defs>
<clipPath id="clip0_4255_852">
<rect width="100" height="100" rx="50" fill="white"/>
</clipPath>
</defs>
</svg>
