<svg width="100" height="100" viewBox="0 0 100 100" fill="none" xmlns="http://www.w3.org/2000/svg">
<g clip-path="url(#clip0_4253_812)">
<path d="M100 100H0V0H100V100ZM51.9375 33.4932C50.3603 29.3094 44.9254 28.2584 41.9023 31.5527L22.4219 52.7832C20.8122 54.5376 20.3923 57.0777 21.3516 59.2568L21.6006 59.8242C22.5143 61.8997 24.5204 63.2824 26.7852 63.3984L29.501 63.5371L34.6797 75.6836C35.623 77.8965 38.1816 78.9257 40.3945 77.9824C42.6076 77.039 43.6368 74.4806 42.6934 72.2676L39.1836 64.0332L54.7734 64.832C59.0925 65.0529 62.2198 60.7705 60.6943 56.7236L51.9375 33.4932ZM63.7451 24.7275C63.7389 24.7277 63.7328 24.7284 63.7275 24.7285H63.7168C63.7151 24.7286 63.7131 24.7291 63.8086 27.7275L63.7129 24.7285C62.0572 24.7814 60.7571 26.1666 60.8096 27.8223C60.8607 29.4263 62.1625 30.6964 63.749 30.7266H63.9043C63.9356 30.7267 63.9941 30.7279 64.0771 30.7314C64.2515 30.739 64.5309 30.7579 64.8896 30.8066C65.6118 30.9049 66.6299 31.1193 67.7568 31.5781C69.957 32.4739 72.6668 34.3307 74.4697 38.3867C76.3234 42.5573 76.0224 45.6784 75.4053 47.6719C75.0874 48.6984 74.6687 49.4768 74.3457 49.9805C74.1848 50.2313 74.0503 50.4111 73.9678 50.5146C73.9334 50.5577 73.9072 50.5867 73.8936 50.6025C73.8953 50.6007 73.8983 50.5989 73.9004 50.5967L73.8047 50.7041C72.7743 51.9099 72.8591 53.7246 74.0234 54.8281C75.2261 55.9676 77.1251 55.9173 78.2646 54.7148L76.0879 52.6514L78.2676 54.7119L78.2764 54.7031C78.2803 54.6989 78.2845 54.6934 78.2891 54.6885C78.2983 54.6785 78.3095 54.6673 78.3213 54.6543C78.3451 54.6281 78.3738 54.5949 78.4072 54.5566C78.474 54.4802 78.5591 54.3792 78.6582 54.2549C78.8567 54.0059 79.1143 53.6597 79.3965 53.2197C79.96 52.341 80.633 51.0733 81.1367 49.4463C82.163 46.1314 82.4243 41.5102 79.9531 35.9502C77.4312 30.276 73.4384 27.4128 70.0186 26.0205C68.336 25.3356 66.8141 25.013 65.6992 24.8613C65.1398 24.7853 64.6757 24.751 64.3369 24.7363C64.1673 24.729 64.0278 24.727 63.9229 24.7266C63.8705 24.7264 63.8261 24.7261 63.791 24.7266C63.7737 24.7268 63.7581 24.7272 63.7451 24.7275ZM62.168 33.6973C62.1553 33.6978 62.1432 33.6987 62.1328 33.6992C62.1277 33.6995 62.1227 33.7 62.1182 33.7002C62.1158 33.7003 62.1125 33.7001 62.1104 33.7002L62.1074 33.7012C62.1066 33.7103 62.1141 33.8561 62.2432 36.1865L62.1045 33.7012C60.4506 33.7932 59.1839 35.2083 59.2754 36.8623C59.3672 38.5156 60.7815 39.7807 62.4346 39.6904V39.6914L62.4316 39.6924L62.3994 39.6934C62.392 39.6937 62.3875 39.6942 62.3857 39.6943C62.3886 39.6943 62.3992 39.694 62.417 39.6943C62.4644 39.6951 62.5591 39.6982 62.6875 39.7119C62.9493 39.7399 63.3225 39.8061 63.7295 39.957C64.4901 40.2392 65.4258 40.824 66.0605 42.252C66.7004 43.6916 66.5287 44.8565 66.2188 45.7002C66.0564 46.142 65.8525 46.4968 65.6953 46.7324C65.6183 46.8479 65.5568 46.9289 65.5234 46.9707C65.5072 46.991 65.4971 47.002 65.4971 47.002C65.4972 47.0018 65.5001 46.9985 65.5049 46.9932L65.5156 46.9824C64.4093 48.2028 64.4934 50.0886 65.708 51.2051C66.928 52.3262 68.8262 52.2463 69.9473 51.0264L67.7383 48.9971C69.9469 51.0266 69.9482 51.0245 69.9492 51.0234L69.9561 51.0166C69.9589 51.0136 69.9617 51.0102 69.9648 51.0068C69.9717 50.9993 69.98 50.9898 69.9883 50.9805C70.0049 50.9618 70.0248 50.9397 70.0469 50.9141C70.0916 50.8621 70.1477 50.7952 70.2119 50.7148C70.3402 50.5541 70.5049 50.3347 70.6865 50.0625C71.0473 49.5218 71.4922 48.7448 71.8506 47.7695C72.5821 45.7785 72.9415 42.962 71.543 39.8154C70.1393 36.6574 67.8105 35.072 65.8154 34.332C64.8452 33.9722 63.9674 33.8148 63.3232 33.7461C62.9987 33.7115 62.7248 33.6988 62.5186 33.6953C62.4156 33.6936 62.328 33.6939 62.2588 33.6953C62.2243 33.696 62.1935 33.6963 62.168 33.6973Z" fill="#A8ACFF"/>
</g>
<defs>
<clipPath id="clip0_4253_812">
<rect width="100" height="100" rx="50" fill="white"/>
</clipPath>
</defs>
</svg>
