<svg width="100" height="100" viewBox="0 0 100 100" fill="none" xmlns="http://www.w3.org/2000/svg">
<g clip-path="url(#clip0_4253_839)">
<path d="M100 100H0V0H100V100ZM22.9072 73.1836C21.9366 73.1838 20.9876 73.4713 20.1807 74.0107C19.3736 74.5502 18.7444 75.3169 18.373 76.2139C18.0017 77.1108 17.9052 78.0977 18.0947 79.0498C18.2843 80.0019 18.752 80.8762 19.4385 81.5625C20.125 82.2488 20.9991 82.717 21.9512 82.9062C22.9032 83.0955 23.8904 82.9975 24.7871 82.626C25.6838 82.2544 26.451 81.6255 26.9902 80.8184C27.5294 80.0111 27.8175 79.0616 27.8174 78.0908C27.8159 76.7894 27.2973 75.5422 26.377 74.6221C25.4566 73.702 24.2086 73.1846 22.9072 73.1836ZM31.4492 62.5059C30.4785 62.5061 29.5297 62.7946 28.7227 63.334C27.9157 63.8735 27.2864 64.6402 26.915 65.5371C26.5438 66.434 26.4472 67.4211 26.6367 68.373C26.8263 69.325 27.294 70.1995 27.9805 70.8857C28.6669 71.5719 29.5412 72.0393 30.4932 72.2285C31.4452 72.4177 32.4324 72.3207 33.3291 71.9492C34.2259 71.5776 34.993 70.9479 35.5322 70.1406C36.0714 69.3334 36.3586 68.3838 36.3584 67.4131C36.3568 66.1118 35.8392 64.8643 34.9189 63.9443C33.9986 63.0243 32.7506 62.5069 31.4492 62.5059ZM56.5693 24.0332C53.9316 22.9417 51.0171 22.7083 48.2393 23.3662C45.4614 24.0242 42.9607 25.5396 41.0928 27.6982C39.2249 29.8569 38.0841 32.5491 37.832 35.3926C37.2366 35.2873 36.633 35.235 36.0283 35.2344C33.3278 35.2338 30.7276 36.2594 28.7549 38.1035C26.7823 39.9477 25.5844 42.4727 25.4033 45.167C25.2223 47.8612 26.0712 50.5237 27.7793 52.6152C29.4875 54.7068 31.9272 56.0708 34.6035 56.4316C34.9265 59.4157 36.339 62.1762 38.5713 64.1826C40.8037 66.189 43.6986 67.3007 46.7002 67.3047C48.4218 67.3114 50.1249 66.9489 51.6943 66.2412C53.2638 65.5335 54.6631 64.4969 55.7979 63.2021C56.8001 63.5189 57.8454 63.68 58.8965 63.6797C61.0236 63.6665 63.096 63.0025 64.835 61.7773C66.5738 60.5522 67.8966 58.8246 68.625 56.8262C69.8662 57.4008 71.2182 57.6973 72.5859 57.6943C74.7818 57.6947 76.9103 56.9318 78.6064 55.5371C80.3024 54.1425 81.4618 52.2023 81.8857 50.0479C82.3097 47.8933 81.9719 45.6579 80.9307 43.7246C79.8894 41.7915 78.2089 40.2798 76.1768 39.4482C75.7272 36.3755 74.0855 33.6032 71.6074 31.7314C69.1293 29.8597 66.0132 29.0393 62.9346 29.4473C61.4338 27.0189 59.207 25.1247 56.5693 24.0332Z" fill="#A8ACFF"/>
</g>
<defs>
<clipPath id="clip0_4253_839">
<rect width="100" height="100" rx="50" fill="white"/>
</clipPath>
</defs>
</svg>
