<svg width="118" height="88" viewBox="0 0 118 88" fill="none" xmlns="http://www.w3.org/2000/svg">
<path d="M94.9393 19.8384C107.465 19.8384 117.619 29.9926 117.619 42.5185C117.619 50.3611 113.638 57.2726 107.587 61.3451C105.867 62.5025 104.895 64.6013 105.515 66.5794L106.862 70.8783C108.311 75.5012 102.476 78.8715 99.1958 75.3064L93.0821 68.661C91.0519 66.4543 88.1904 65.1986 85.1918 65.1986H32.5801C20.0542 65.1986 9.89996 55.0444 9.89996 42.5185C9.89996 29.9926 20.0542 19.8384 32.5801 19.8384L94.9393 19.8384Z" fill="#A8ACFF"/>
<line x1="23.1525" y1="6.94414" x2="23.1525" y2="38.2559" stroke="#464FF9" stroke-width="13.8883" stroke-linecap="round"/>
<line x1="38.5559" y1="22.6004" x2="7.24415" y2="22.6004" stroke="#464FF9" stroke-width="13.8883" stroke-linecap="round"/>
<path d="M30.0971 12.0393C30.0964 11.9591 30.0965 11.8774 30.0971 11.7939V12.0393C30.121 14.8368 30.9898 15.6444 33.8337 15.6558H33.9586C33.9166 15.656 33.8749 15.656 33.8337 15.6558H30.0971V12.0393Z" fill="#464FF9"/>
<path d="M30.0971 33.115C30.0964 33.1952 30.0965 33.2769 30.0971 33.3604V33.115C30.121 30.3175 30.9898 29.5099 33.8337 29.4985H33.9586C33.9166 29.4983 33.8749 29.4983 33.8337 29.4985H30.0971V33.115Z" fill="#464FF9"/>
<path d="M16.2635 12.0393C16.2642 11.9591 16.2641 11.8774 16.2635 11.7939V12.0393C16.2396 14.8368 15.3708 15.6444 12.5269 15.6558H12.402C12.444 15.656 12.4857 15.656 12.5269 15.6558H16.2635V12.0393Z" fill="#464FF9"/>
<path d="M16.2635 33.115C16.2642 33.1952 16.2641 33.2769 16.2635 33.3604V33.115C16.2396 30.3175 15.3708 29.5099 12.5269 29.4985H12.402C12.444 29.4983 12.4857 29.4983 12.5269 29.4985H16.2635V33.115Z" fill="#464FF9"/>
<path d="M37.0588 32.3614H40.7806C41.4259 32.3614 41.9917 32.4023 42.4779 32.4841C42.9687 32.5614 43.3936 32.6727 43.7526 32.8181C44.1116 32.9635 44.4093 33.1385 44.6456 33.343C44.8864 33.5475 45.0773 33.7724 45.2182 34.0178C45.3636 34.2587 45.4658 34.5177 45.5249 34.7949C45.584 35.0721 45.6135 35.3584 45.6135 35.6538C45.6135 35.9037 45.584 36.1537 45.5249 36.4036C45.4704 36.6536 45.375 36.8921 45.2386 37.1194C45.1068 37.3466 44.9296 37.5579 44.7069 37.7533C44.4843 37.9487 44.2093 38.1191 43.8821 38.2645C43.5595 38.41 43.1755 38.5236 42.7301 38.6054C42.2893 38.6872 41.7804 38.7281 41.2032 38.7281C41.1214 38.7281 41.0192 38.7281 40.8965 38.7281C40.7738 38.7235 40.6534 38.7167 40.5352 38.7076L40.1126 38.6803V42H37.0588V32.3614ZM40.1126 37.2012H40.8147C41.1419 37.2012 41.4168 37.1625 41.6395 37.0853C41.8622 37.0035 42.0417 36.8944 42.178 36.7581C42.3143 36.6217 42.412 36.4604 42.4711 36.2741C42.5302 36.0878 42.5597 35.8878 42.5597 35.6742C42.5597 35.3334 42.5166 35.0517 42.4302 34.829C42.3439 34.6063 42.2212 34.4291 42.0621 34.2973C41.9076 34.161 41.7236 34.0655 41.51 34.011C41.2964 33.9565 41.0646 33.9292 40.8147 33.9292H40.1126V37.2012ZM47.2972 32.3614H51.6326C52.3187 32.3614 52.9231 32.4523 53.4458 32.6341C53.9684 32.8113 54.4023 33.0476 54.7477 33.343C55.0976 33.6338 55.3612 33.9656 55.5384 34.3382C55.7157 34.7063 55.8043 35.0789 55.8043 35.4561C55.8043 35.7515 55.7747 36.0446 55.7157 36.3355C55.6566 36.6217 55.5521 36.8944 55.4021 37.1534C55.2521 37.4079 55.0454 37.6397 54.7818 37.8487C54.5228 38.0532 54.191 38.2191 53.7866 38.3463C53.8457 38.5372 53.9456 38.7735 54.0865 39.0553C54.2274 39.337 54.391 39.6415 54.5773 39.9687C54.7636 40.2959 54.9636 40.6344 55.1772 40.9843C55.3907 41.3343 55.5998 41.6728 55.8043 42H52.3142C52.1188 41.5592 51.9188 41.0661 51.7143 40.5208C51.5099 39.9709 51.3463 39.3734 51.2236 38.7281H50.351V42H47.2972V32.3614ZM50.8691 37.2012C51.2145 37.2012 51.5053 37.1557 51.7416 37.0648C51.9825 36.9739 52.1779 36.8558 52.3278 36.7104C52.4778 36.5649 52.5846 36.4013 52.6482 36.2196C52.7164 36.0378 52.7505 35.856 52.7505 35.6742C52.7505 35.3152 52.7005 35.0221 52.6005 34.7949C52.5005 34.5677 52.3642 34.3905 52.1915 34.2632C52.0188 34.1314 51.8189 34.0428 51.5917 33.9974C51.3644 33.9519 51.1213 33.9292 50.8623 33.9292H50.351V37.2012H50.8691ZM65.5042 42H61.8642L61.4143 39.9482H59.0217L58.5922 42H56.1315L58.5854 32.3614H62.8526L65.5042 42ZM60.2487 33.861L59.3148 38.3531H61.2643L60.46 33.861H60.2487ZM72.8116 37.2012L75.211 42H71.5028L70.2758 38.3668L68.6262 42H65.8314L68.2308 37.2012L65.8314 32.3614H69.5396L71.012 35.7765L72.5934 32.3614H75.211L72.8116 37.2012ZM76.6425 32.3614H79.6963V42H76.6425V32.3614ZM88.8986 34.8631C88.7123 34.7813 88.4942 34.6995 88.2442 34.6177C87.9988 34.5313 87.7398 34.4541 87.4671 34.3859C87.199 34.3178 86.9263 34.2632 86.6491 34.2223C86.3719 34.1769 86.1106 34.1542 85.8652 34.1542C85.4381 34.1542 85.1041 34.2087 84.8632 34.3178C84.6224 34.4268 84.5019 34.6109 84.5019 34.8699C84.5019 34.9926 84.5428 35.1017 84.6246 35.1971C84.711 35.288 84.8314 35.3743 84.9859 35.4561C85.1404 35.5334 85.3245 35.6106 85.538 35.6879C85.7562 35.7606 85.997 35.8378 86.2606 35.9196L86.7582 36.0764C87.1763 36.2037 87.5512 36.3582 87.8829 36.5399C88.2147 36.7172 88.4942 36.9285 88.7214 37.1739C88.9531 37.4147 89.1304 37.6919 89.2531 38.0055C89.3758 38.3191 89.4371 38.6758 89.4371 39.0757C89.4371 39.5438 89.3621 39.9709 89.2122 40.3572C89.0667 40.7389 88.8373 41.0661 88.5237 41.3388C88.2101 41.6115 87.808 41.8228 87.3172 41.9727C86.8309 42.1227 86.2447 42.1977 85.5585 42.1977C84.9496 42.1977 84.3429 42.1477 83.7385 42.0477C83.1386 41.9477 82.532 41.7728 81.9185 41.5228V39.2734C82.5047 39.5733 83.0727 39.7937 83.6226 39.9346C84.177 40.0709 84.7223 40.1391 85.2586 40.1391C85.6994 40.1391 86.0197 40.0686 86.2197 39.9278C86.4242 39.7869 86.5264 39.5915 86.5264 39.3415C86.5264 39.1916 86.4878 39.0643 86.4106 38.9598C86.3379 38.8508 86.2174 38.7508 86.0493 38.6599C85.8857 38.569 85.6698 38.4781 85.4017 38.3872C85.1336 38.2918 84.8087 38.185 84.4269 38.0669C84.0452 37.9532 83.6908 37.8101 83.3636 37.6374C83.0409 37.4647 82.7614 37.258 82.5251 37.0171C82.2888 36.7717 82.1025 36.4877 81.9662 36.165C81.8344 35.8424 81.7685 35.4743 81.7685 35.0608C81.7685 34.6336 81.8435 34.2428 81.9934 33.8883C82.1434 33.5339 82.3729 33.2317 82.6819 32.9817C82.9909 32.7272 83.3817 32.5295 83.8544 32.3887C84.3315 32.2478 84.8973 32.1774 85.5517 32.1774C85.8107 32.1774 86.0856 32.1887 86.3765 32.2114C86.6673 32.2342 86.9627 32.2682 87.2626 32.3137C87.5671 32.3591 87.867 32.4182 88.1624 32.4909C88.4578 32.5636 88.7373 32.65 89.0009 32.7499L88.8986 34.8631Z" fill="#E7E8FF"/>
<path d="M37.0588 44.5616H40.1126V52.237H43.3845V54.2002H37.0588V44.5616ZM48.6537 54.3979C48.0584 54.3979 47.5267 54.332 47.0586 54.2002C46.5906 54.073 46.177 53.8957 45.818 53.6685C45.4636 53.4367 45.1614 53.1641 44.9114 52.8505C44.666 52.5324 44.4638 52.1893 44.3048 51.8212C44.1503 51.4486 44.0366 51.0578 43.9639 50.6488C43.8958 50.2398 43.8617 49.824 43.8617 49.4013C43.8617 48.9833 43.9049 48.5697 43.9912 48.1607C44.0775 47.7472 44.2071 47.3541 44.3797 46.9815C44.5524 46.6088 44.7706 46.2635 45.0341 45.9454C45.2977 45.6273 45.6067 45.3523 45.9612 45.1206C46.3156 44.8888 46.7155 44.707 47.1609 44.5752C47.6108 44.4434 48.1084 44.3776 48.6537 44.3776C49.199 44.3776 49.6944 44.4434 50.1397 44.5752C50.5896 44.707 50.9918 44.8888 51.3463 45.1206C51.7053 45.3523 52.0165 45.6273 52.2801 45.9454C52.5437 46.2635 52.7618 46.6088 52.9345 46.9815C53.1117 47.3541 53.2435 47.7472 53.3299 48.1607C53.4162 48.5697 53.4594 48.9833 53.4594 49.4013C53.4594 49.824 53.423 50.2398 53.3503 50.6488C53.2776 51.0578 53.1617 51.4486 53.0027 51.8212C52.8482 52.1893 52.6459 52.5324 52.396 52.8505C52.1461 53.1641 51.8439 53.4367 51.4894 53.6685C51.1349 53.8957 50.7214 54.073 50.2488 54.2002C49.7807 54.332 49.249 54.3979 48.6537 54.3979ZM46.9155 49.4013C46.9155 49.9467 46.9541 50.4125 47.0314 50.7987C47.1132 51.185 47.2268 51.5008 47.3722 51.7462C47.5222 51.9916 47.7039 52.1711 47.9175 52.2847C48.1357 52.3984 48.3811 52.4552 48.6537 52.4552C48.9264 52.4552 49.1695 52.3984 49.3831 52.2847C49.6012 52.1711 49.7853 51.9916 49.9352 51.7462C50.0897 51.5008 50.2056 51.185 50.2829 50.7987C50.3647 50.4125 50.4056 49.9467 50.4056 49.4013C50.4056 48.856 50.3647 48.3902 50.2829 48.004C50.2056 47.6131 50.0897 47.295 49.9352 47.0496C49.7853 46.7997 49.6012 46.6157 49.3831 46.4975C49.1695 46.3793 48.9264 46.3203 48.6537 46.3203C48.3811 46.3203 48.1357 46.3793 47.9175 46.4975C47.7039 46.6157 47.5222 46.7997 47.3722 47.0496C47.2268 47.295 47.1132 47.6131 47.0314 48.004C46.9541 48.3902 46.9155 48.856 46.9155 49.4013ZM59.6215 54.3979C58.9444 54.3979 58.3355 54.3002 57.7947 54.1048C57.2585 53.9048 56.8018 53.6072 56.4246 53.2118C56.0474 52.8119 55.7588 52.312 55.5589 51.7122C55.3589 51.1123 55.259 50.4102 55.259 49.6058V44.5616H58.3128V49.6195C58.3128 50.0694 58.3355 50.4693 58.3809 50.8192C58.4264 51.1691 58.5036 51.4668 58.6127 51.7122C58.7218 51.953 58.8672 52.1371 59.049 52.2643C59.2307 52.3915 59.4579 52.4552 59.7306 52.4552C60.0305 52.4552 60.2714 52.3915 60.4532 52.2643C60.6395 52.1371 60.7826 51.953 60.8826 51.7122C60.9871 51.4668 61.0576 51.1691 61.0939 50.8192C61.1303 50.4693 61.1484 50.0694 61.1484 49.6195V44.5616H63.6978V49.6058C63.6978 50.4147 63.6183 51.1191 63.4593 51.719C63.3002 52.3188 63.0525 52.8187 62.7163 53.2186C62.3845 53.614 61.9619 53.9094 61.4484 54.1048C60.9394 54.3002 60.3305 54.3979 59.6215 54.3979ZM66.0291 44.5616H68.9807L72.648 49.4013V44.5616H74.9792V54.2002H71.9527L68.3399 49.0742V54.2002H66.0291V44.5616ZM82.0548 54.3979C81.5549 54.3979 81.0778 54.3411 80.6233 54.2275C80.1689 54.1184 79.7463 53.9593 79.3554 53.7503C78.9646 53.5413 78.6102 53.2868 78.2921 52.9869C77.9785 52.6869 77.7081 52.3484 77.4809 51.9712C77.2582 51.594 77.0855 51.1827 76.9628 50.7374C76.8401 50.292 76.7788 49.8172 76.7788 49.3127C76.7788 48.5765 76.9242 47.9063 77.215 47.3019C77.5104 46.6929 77.9194 46.1726 78.442 45.7409C78.9692 45.3046 79.594 44.9683 80.3166 44.732C81.0437 44.4957 81.8412 44.3776 82.7092 44.3776C83.1773 44.3776 83.6726 44.4139 84.1952 44.4866C84.7178 44.5548 85.2404 44.6661 85.763 44.8206L85.3267 47.0019C84.8587 46.8338 84.4315 46.7179 84.0452 46.6543C83.659 46.5861 83.2863 46.552 82.9273 46.552C82.4502 46.552 82.0207 46.6202 81.639 46.7565C81.2573 46.8883 80.9323 47.0746 80.6642 47.3155C80.3961 47.5563 80.1893 47.8494 80.0439 48.1948C79.903 48.5356 79.8326 48.9128 79.8326 49.3264C79.8326 49.7853 79.8803 50.1943 79.9757 50.5533C80.0712 50.9123 80.2189 51.2168 80.4188 51.4668C80.6188 51.7167 80.871 51.9076 81.1755 52.0394C81.4845 52.1711 81.8503 52.237 82.2729 52.237H83.1454V50.2398L81.6185 50.4443V48.747H85.763V53.3549C85.4267 53.5549 85.1018 53.723 84.7882 53.8594C84.4747 53.9912 84.1656 54.0979 83.8612 54.1797C83.5567 54.257 83.2545 54.3115 82.9546 54.3433C82.6592 54.3797 82.3593 54.3979 82.0548 54.3979ZM87.8625 44.5616H94.6245V46.3475H90.9163V48.3857H94.1882V50.1307H90.9163V52.237H94.6245V54.2002H87.8625V44.5616Z" fill="#E7E8FF"/>
</svg>
