<svg width="802" height="351" viewBox="0 0 802 351" fill="none" xmlns="http://www.w3.org/2000/svg">
<path d="M377.476 79.1264C427.437 79.1264 467.938 119.627 467.938 169.588C467.938 200.869 452.058 228.436 427.922 244.679C421.063 249.296 417.186 257.667 419.658 265.557L425.033 282.703C430.812 301.142 407.537 314.584 394.454 300.365L370.069 273.859C361.971 265.058 350.558 260.049 338.598 260.049H128.752C78.7913 260.049 38.2903 219.548 38.2903 169.588C38.2903 119.627 78.7913 79.1264 128.752 79.1264L377.476 79.1264Z" fill="#A8ACFF"/>
<line x1="91.1488" y1="27.6971" x2="91.1488" y2="152.586" stroke="#EA77D1" stroke-width="55.3945" stroke-linecap="round"/>
<line x1="152.586" y1="90.1426" x2="27.6973" y2="90.1426" stroke="#EA77D1" stroke-width="55.3945" stroke-linecap="round"/>
<path d="M118.848 48.0189C118.845 47.6993 118.845 47.3731 118.848 47.0404V48.0189C118.943 59.1772 122.409 62.3981 133.752 62.4438H134.25C134.082 62.4445 133.916 62.4445 133.752 62.4438H118.848V48.0189Z" fill="#EA77D1"/>
<path d="M118.848 132.082C118.845 132.402 118.845 132.728 118.848 133.061V132.082C118.943 120.924 122.409 117.703 133.752 117.658H134.25C134.082 117.657 133.916 117.657 133.752 117.658H118.848V132.082Z" fill="#EA77D1"/>
<path d="M63.6715 48.0189C63.6742 47.6993 63.6742 47.3731 63.6715 47.0404V48.0189C63.5762 59.1772 60.1108 62.3981 48.768 62.4438H48.2696C48.4374 62.4445 48.6035 62.4445 48.768 62.4438H63.6715V48.0189Z" fill="#EA77D1"/>
<path d="M63.6715 132.082C63.6742 132.402 63.6742 132.728 63.6715 133.061V132.082C63.5762 120.924 60.1108 117.703 48.768 117.658H48.2696C48.4374 117.657 48.6035 117.657 48.768 117.658H63.6715V132.082Z" fill="#EA77D1"/>
<path d="M146.615 129.247H161.46C164.034 129.247 166.291 129.41 168.23 129.737C170.188 130.045 171.882 130.489 173.314 131.069C174.746 131.649 175.933 132.347 176.876 133.162C177.837 133.978 178.598 134.875 179.16 135.854C179.74 136.815 180.148 137.848 180.383 138.953C180.619 140.059 180.737 141.201 180.737 142.379C180.737 143.376 180.619 144.373 180.383 145.37C180.166 146.367 179.785 147.318 179.241 148.225C178.716 149.131 178.009 149.974 177.121 150.753C176.232 151.533 175.136 152.212 173.831 152.792C172.544 153.372 171.012 153.825 169.236 154.152C167.478 154.478 165.448 154.641 163.146 154.641C162.82 154.641 162.412 154.641 161.922 154.641C161.433 154.623 160.953 154.596 160.481 154.56L158.796 154.451V167.692H146.615V129.247ZM158.796 148.551H161.596C162.901 148.551 163.998 148.397 164.886 148.089C165.774 147.762 166.49 147.327 167.034 146.784C167.577 146.24 167.967 145.596 168.203 144.853C168.438 144.11 168.556 143.313 168.556 142.461C168.556 141.101 168.384 139.978 168.04 139.089C167.695 138.201 167.206 137.494 166.572 136.969C165.955 136.425 165.221 136.044 164.369 135.827C163.517 135.609 162.593 135.501 161.596 135.501H158.796V148.551ZM187.452 129.247H204.744C207.481 129.247 209.892 129.61 211.976 130.335C214.06 131.042 215.791 131.984 217.169 133.162C218.565 134.322 219.616 135.646 220.323 137.132C221.03 138.6 221.383 140.086 221.383 141.591C221.383 142.769 221.265 143.938 221.03 145.098C220.794 146.24 220.377 147.327 219.779 148.361C219.181 149.376 218.356 150.3 217.305 151.134C216.272 151.949 214.949 152.611 213.335 153.119C213.571 153.88 213.97 154.822 214.532 155.946C215.094 157.07 215.746 158.284 216.489 159.589C217.232 160.894 218.03 162.245 218.882 163.64C219.734 165.036 220.568 166.386 221.383 167.692H207.463C206.683 165.933 205.886 163.967 205.07 161.792C204.255 159.598 203.602 157.215 203.113 154.641H199.633V167.692H187.452V129.247ZM201.699 148.551C203.076 148.551 204.236 148.37 205.179 148.007C206.14 147.645 206.919 147.173 207.517 146.593C208.115 146.013 208.541 145.361 208.795 144.636C209.067 143.911 209.203 143.186 209.203 142.461C209.203 141.029 209.003 139.86 208.605 138.953C208.206 138.047 207.662 137.34 206.973 136.833C206.285 136.307 205.487 135.954 204.581 135.772C203.675 135.591 202.705 135.501 201.672 135.501H199.633V148.551H201.699ZM260.072 167.692H245.554L243.759 159.508H234.216L232.503 167.692H222.688L232.476 129.247H249.496L260.072 167.692ZM239.11 135.229L235.385 153.146H243.161L239.953 135.229H239.11ZM289.218 148.551L298.788 167.692H283.998L279.104 153.2L272.524 167.692H261.377L270.947 148.551L261.377 129.247H276.168L282.04 142.869L288.348 129.247H298.788L289.218 148.551ZM304.498 129.247H316.678V167.692H304.498V129.247ZM353.382 139.225C352.639 138.899 351.769 138.573 350.772 138.247C349.794 137.902 348.76 137.594 347.673 137.322C346.603 137.05 345.516 136.833 344.41 136.67C343.305 136.488 342.262 136.398 341.284 136.398C339.58 136.398 338.248 136.615 337.287 137.05C336.326 137.485 335.846 138.219 335.846 139.253C335.846 139.742 336.009 140.177 336.335 140.558C336.68 140.92 337.16 141.264 337.776 141.591C338.393 141.899 339.127 142.207 339.979 142.515C340.849 142.805 341.809 143.113 342.861 143.44L344.845 144.065C346.513 144.572 348.008 145.189 349.331 145.914C350.655 146.621 351.769 147.463 352.676 148.442C353.6 149.403 354.307 150.509 354.796 151.759C355.286 153.01 355.53 154.433 355.53 156.028C355.53 157.895 355.231 159.598 354.633 161.139C354.053 162.662 353.138 163.967 351.887 165.054C350.636 166.142 349.032 166.985 347.075 167.583C345.135 168.181 342.797 168.48 340.06 168.48C337.631 168.48 335.212 168.281 332.801 167.882C330.408 167.483 327.989 166.785 325.542 165.788V156.816C327.88 158.012 330.145 158.892 332.339 159.453C334.55 159.997 336.725 160.269 338.864 160.269C340.622 160.269 341.9 159.988 342.697 159.426C343.513 158.864 343.921 158.085 343.921 157.088C343.921 156.49 343.767 155.982 343.459 155.566C343.169 155.131 342.688 154.732 342.018 154.369C341.365 154.007 340.504 153.644 339.435 153.282C338.365 152.901 337.069 152.475 335.547 152.004C334.024 151.551 332.611 150.98 331.306 150.291C330.019 149.602 328.904 148.778 327.961 147.817C327.019 146.838 326.276 145.705 325.732 144.418C325.206 143.131 324.943 141.663 324.943 140.014C324.943 138.31 325.243 136.751 325.841 135.337C326.439 133.924 327.354 132.718 328.587 131.721C329.819 130.706 331.378 129.918 333.263 129.356C335.166 128.794 337.423 128.513 340.033 128.513C341.066 128.513 342.163 128.558 343.323 128.649C344.483 128.74 345.661 128.876 346.857 129.057C348.072 129.238 349.268 129.474 350.446 129.764C351.624 130.054 352.739 130.398 353.79 130.797L353.382 139.225Z" fill="black"/>
<path d="M146.615 177.908H158.796V208.522H171.846V216.352H146.615V177.908ZM192.863 217.141C190.488 217.141 188.367 216.878 186.501 216.352C184.634 215.845 182.984 215.138 181.552 214.231C180.138 213.307 178.933 212.219 177.936 210.969C176.957 209.7 176.151 208.332 175.516 206.863C174.9 205.377 174.447 203.818 174.157 202.187C173.885 200.556 173.749 198.897 173.749 197.212C173.749 195.544 173.921 193.895 174.266 192.263C174.61 190.614 175.127 189.046 175.816 187.56C176.504 186.073 177.374 184.696 178.426 183.427C179.477 182.158 180.709 181.062 182.123 180.137C183.537 179.213 185.132 178.488 186.908 177.962C188.703 177.437 190.688 177.174 192.863 177.174C195.038 177.174 197.013 177.437 198.79 177.962C200.584 178.488 202.188 179.213 203.602 180.137C205.034 181.062 206.276 182.158 207.327 183.427C208.378 184.696 209.248 186.073 209.937 187.56C210.644 189.046 211.169 190.614 211.514 192.263C211.858 193.895 212.03 195.544 212.03 197.212C212.03 198.897 211.885 200.556 211.595 202.187C211.305 203.818 210.843 205.377 210.209 206.863C209.592 208.332 208.786 209.7 207.789 210.969C206.792 212.219 205.587 213.307 204.173 214.231C202.759 215.138 201.11 215.845 199.225 216.352C197.358 216.878 195.237 217.141 192.863 217.141ZM185.93 197.212C185.93 199.387 186.084 201.244 186.392 202.785C186.718 204.326 187.171 205.586 187.751 206.564C188.349 207.543 189.074 208.259 189.926 208.712C190.796 209.165 191.775 209.392 192.863 209.392C193.95 209.392 194.92 209.165 195.772 208.712C196.642 208.259 197.376 207.543 197.974 206.564C198.59 205.586 199.052 204.326 199.361 202.785C199.687 201.244 199.85 199.387 199.85 197.212C199.85 195.036 199.687 193.179 199.361 191.638C199.052 190.079 198.59 188.81 197.974 187.832C197.376 186.835 196.642 186.101 195.772 185.629C194.92 185.158 193.95 184.922 192.863 184.922C191.775 184.922 190.796 185.158 189.926 185.629C189.074 186.101 188.349 186.835 187.751 187.832C187.171 188.81 186.718 190.079 186.392 191.638C186.084 193.179 185.93 195.036 185.93 197.212ZM236.609 217.141C233.908 217.141 231.479 216.751 229.322 215.971C227.183 215.174 225.362 213.987 223.857 212.41C222.353 210.815 221.202 208.821 220.404 206.428C219.607 204.036 219.208 201.235 219.208 198.027V177.908H231.388V198.082C231.388 199.876 231.479 201.471 231.66 202.867C231.842 204.262 232.15 205.45 232.585 206.428C233.02 207.389 233.6 208.123 234.325 208.631C235.05 209.138 235.956 209.392 237.044 209.392C238.24 209.392 239.201 209.138 239.926 208.631C240.669 208.123 241.24 207.389 241.638 206.428C242.055 205.45 242.336 204.262 242.481 202.867C242.626 201.471 242.699 199.876 242.699 198.082V177.908H252.867V198.027C252.867 201.254 252.55 204.063 251.916 206.456C251.281 208.848 250.293 210.842 248.952 212.437C247.629 214.014 245.943 215.192 243.895 215.971C241.865 216.751 239.436 217.141 236.609 217.141ZM262.166 177.908H273.938L288.565 197.212V177.908H297.864V216.352H285.792L271.382 195.906V216.352H262.166V177.908ZM326.085 217.141C324.092 217.141 322.188 216.914 320.376 216.461C318.563 216.026 316.878 215.391 315.319 214.558C313.76 213.724 312.346 212.709 311.077 211.513C309.827 210.316 308.748 208.966 307.842 207.462C306.954 205.957 306.265 204.317 305.776 202.54C305.286 200.764 305.042 198.87 305.042 196.858C305.042 193.922 305.622 191.248 306.782 188.838C307.96 186.409 309.591 184.333 311.676 182.611C313.778 180.871 316.27 179.53 319.152 178.588C322.052 177.645 325.233 177.174 328.695 177.174C330.562 177.174 332.538 177.319 334.622 177.609C336.707 177.881 338.791 178.325 340.876 178.941L339.136 187.641C337.269 186.971 335.565 186.508 334.024 186.255C332.484 185.983 330.997 185.847 329.565 185.847C327.662 185.847 325.949 186.119 324.427 186.662C322.904 187.188 321.608 187.931 320.539 188.892C319.47 189.853 318.645 191.022 318.065 192.399C317.503 193.759 317.222 195.263 317.222 196.912C317.222 198.743 317.412 200.374 317.793 201.806C318.174 203.238 318.763 204.453 319.56 205.45C320.358 206.447 321.364 207.208 322.578 207.733C323.811 208.259 325.27 208.522 326.955 208.522H330.435V200.556L324.345 201.371V194.601H340.876V212.981C339.535 213.778 338.239 214.449 336.988 214.993C335.737 215.518 334.505 215.944 333.29 216.271C332.076 216.579 330.871 216.796 329.674 216.923C328.496 217.068 327.3 217.141 326.085 217.141ZM349.25 177.908H376.221V185.031H361.43V193.16H374.481V200.121H361.43V208.522H376.221V216.352H349.25V177.908Z" fill="black"/>
<line x1="507.759" y1="94.4974" x2="507.759" y2="256.497" stroke="#A8ACFF" stroke-width="5" stroke-linecap="round"/>
<path d="M545.658 111.89H554.563V139.997H545.658V111.89ZM561.341 111.89H569.948L580.643 126.004V111.89H587.441V139.997H578.615L568.08 125.049V139.997H561.341V111.89ZM597.399 139.997V118.371H591.038V111.89H612.804V118.371H606.304V139.997H597.399ZM616.422 111.89H636.141V117.098H625.327V123.042H634.869V128.13H625.327V134.273H636.141V139.997H616.422V111.89ZM642.641 111.89H655.283C657.284 111.89 659.046 112.156 660.57 112.686C662.094 113.202 663.36 113.891 664.367 114.753C665.387 115.601 666.156 116.568 666.673 117.655C667.189 118.728 667.448 119.815 667.448 120.915C667.448 121.776 667.362 122.631 667.189 123.479C667.017 124.314 666.712 125.109 666.275 125.864C665.838 126.607 665.235 127.282 664.466 127.892C663.711 128.488 662.743 128.972 661.564 129.343C661.736 129.9 662.028 130.589 662.439 131.41C662.85 132.232 663.327 133.12 663.87 134.074C664.413 135.028 664.996 136.015 665.619 137.036C666.242 138.056 666.852 139.043 667.448 139.997H657.271C656.701 138.712 656.118 137.274 655.521 135.684C654.925 134.08 654.448 132.338 654.09 130.456H651.546V139.997H642.641V111.89ZM653.056 126.004C654.064 126.004 654.912 125.871 655.601 125.606C656.303 125.341 656.873 124.996 657.31 124.572C657.748 124.148 658.059 123.671 658.245 123.141C658.443 122.611 658.543 122.081 658.543 121.551C658.543 120.504 658.397 119.649 658.105 118.987C657.814 118.324 657.416 117.807 656.913 117.436C656.409 117.052 655.826 116.794 655.164 116.661C654.501 116.529 653.792 116.462 653.037 116.462H651.546V126.004H653.056ZM671.582 111.89H680.189L690.884 126.004V111.89H697.682V139.997H688.856L678.321 125.049V139.997H671.582V111.89ZM704.48 111.89H724.198V117.098H713.385V123.042H722.926V128.13H713.385V134.273H724.198V139.997H704.48V111.89ZM544.088 179.004C544.088 176.738 544.492 174.703 545.3 172.901C546.122 171.086 547.228 169.548 548.62 168.29C550.011 167.017 551.628 166.043 553.47 165.368C555.312 164.692 557.266 164.354 559.334 164.354C560.778 164.354 562.249 164.493 563.747 164.771C565.244 165.05 566.735 165.553 568.219 166.282L566.987 172.643C565.82 172.007 564.668 171.53 563.528 171.212C562.388 170.894 561.341 170.734 560.387 170.734C559.234 170.734 558.201 170.927 557.286 171.311C556.372 171.682 555.597 172.225 554.961 172.941C554.325 173.656 553.834 174.524 553.49 175.545C553.158 176.565 552.993 177.718 552.993 179.004C552.993 180.289 553.158 181.442 553.49 182.462C553.834 183.483 554.325 184.351 554.961 185.066C555.597 185.782 556.372 186.332 557.286 186.716C558.201 187.087 559.234 187.273 560.387 187.273C561.341 187.273 562.388 187.114 563.528 186.796C564.668 186.478 565.82 186 566.987 185.364L568.219 191.725C566.735 192.441 565.244 192.924 563.747 193.176C562.249 193.441 560.778 193.574 559.334 193.574C557.266 193.574 555.312 193.243 553.47 192.58C551.628 191.904 550.011 190.943 548.62 189.698C547.228 188.439 546.122 186.908 545.3 185.106C544.492 183.304 544.088 181.27 544.088 179.004ZM574.043 164.89H582.948V175.823H591.217V164.89H600.123V192.997H591.217V181.548H582.948V192.997H574.043V164.89ZM631.052 192.997H620.437L619.125 187.014H612.148L610.896 192.997H603.72L610.876 164.89H623.32L631.052 192.997ZM615.726 169.264L613.003 182.363H618.688L616.343 169.264H615.726ZM634.65 192.997V171.371H628.289V164.89H650.055V171.371H643.555V192.997H634.65ZM691.997 192.997H681.382L680.07 187.014H673.093L671.841 192.997H664.665L671.821 164.89H684.264L691.997 192.997ZM676.671 169.264L673.948 182.363H679.633L677.287 169.264H676.671ZM695.595 164.89H706.448C708.329 164.89 709.979 165.01 711.397 165.248C712.828 165.474 714.067 165.798 715.114 166.222C716.161 166.646 717.029 167.157 717.718 167.753C718.421 168.349 718.977 169.005 719.388 169.721C719.812 170.423 720.11 171.178 720.282 171.987C720.455 172.795 720.541 173.63 720.541 174.491C720.541 175.22 720.455 175.949 720.282 176.678C720.123 177.407 719.845 178.102 719.448 178.765C719.063 179.428 718.546 180.044 717.897 180.614C717.248 181.183 716.446 181.68 715.492 182.104C714.551 182.529 713.431 182.86 712.133 183.098C710.847 183.337 709.363 183.456 707.68 183.456C707.442 183.456 707.143 183.456 706.786 183.456C706.428 183.443 706.077 183.423 705.732 183.397L704.5 183.317V192.997H695.595V164.89ZM704.5 179.004H706.547C707.501 179.004 708.303 178.891 708.952 178.666C709.602 178.427 710.125 178.109 710.523 177.712C710.92 177.314 711.205 176.844 711.377 176.3C711.55 175.757 711.636 175.174 711.636 174.551C711.636 173.557 711.51 172.736 711.258 172.086C711.006 171.437 710.648 170.92 710.185 170.536C709.734 170.138 709.197 169.86 708.575 169.701C707.952 169.542 707.276 169.462 706.547 169.462H704.5V179.004ZM725.451 164.89H736.304C738.186 164.89 739.835 165.01 741.253 165.248C742.684 165.474 743.924 165.798 744.97 166.222C746.017 166.646 746.885 167.157 747.574 167.753C748.277 168.349 748.833 169.005 749.244 169.721C749.668 170.423 749.966 171.178 750.139 171.987C750.311 172.795 750.397 173.63 750.397 174.491C750.397 175.22 750.311 175.949 750.139 176.678C749.98 177.407 749.701 178.102 749.304 178.765C748.919 179.428 748.403 180.044 747.753 180.614C747.104 181.183 746.302 181.68 745.348 182.104C744.407 182.529 743.287 182.86 741.989 183.098C740.703 183.337 739.219 183.456 737.536 183.456C737.298 183.456 736.999 183.456 736.642 183.456C736.284 183.443 735.933 183.423 735.588 183.397L734.356 183.317V192.997H725.451V164.89ZM734.356 179.004H736.403C737.357 179.004 738.159 178.891 738.808 178.666C739.458 178.427 739.981 178.109 740.379 177.712C740.776 177.314 741.061 176.844 741.233 176.3C741.406 175.757 741.492 175.174 741.492 174.551C741.492 173.557 741.366 172.736 741.114 172.086C740.862 171.437 740.505 170.92 740.041 170.536C739.59 170.138 739.053 169.86 738.431 169.701C737.808 169.542 737.132 169.462 736.403 169.462H734.356V179.004ZM545.658 217.89H564.899V223.098H554.563V229.101H563.627V234.826H554.563V245.997H545.658V217.89ZM582.213 246.574C580.238 246.574 578.463 246.289 576.886 245.719C575.322 245.136 573.99 244.268 572.89 243.115C571.79 241.949 570.949 240.491 570.366 238.742C569.783 236.993 569.491 234.945 569.491 232.6V217.89H578.396V232.64C578.396 233.952 578.463 235.118 578.595 236.138C578.728 237.158 578.953 238.026 579.271 238.742C579.589 239.444 580.013 239.981 580.543 240.352C581.073 240.723 581.736 240.909 582.531 240.909C583.405 240.909 584.108 240.723 584.638 240.352C585.181 239.981 585.599 239.444 585.89 238.742C586.195 238.026 586.4 237.158 586.506 236.138C586.612 235.118 586.665 233.952 586.665 232.64V217.89H594.1V232.6C594.1 234.959 593.868 237.013 593.404 238.762C592.94 240.511 592.218 241.969 591.237 243.135C590.27 244.288 589.037 245.149 587.54 245.719C586.056 246.289 584.28 246.574 582.213 246.574ZM575.991 214.79C575.315 214.79 574.719 214.677 574.202 214.452C573.685 214.213 573.248 213.908 572.89 213.537C572.546 213.153 572.287 212.722 572.115 212.245C571.943 211.768 571.857 211.278 571.857 210.774C571.857 210.271 571.943 209.78 572.115 209.303C572.287 208.826 572.546 208.402 572.89 208.031C573.235 207.647 573.665 207.342 574.182 207.117C574.699 206.892 575.302 206.779 575.991 206.779C576.68 206.779 577.283 206.892 577.8 207.117C578.317 207.342 578.748 207.647 579.092 208.031C579.437 208.402 579.695 208.826 579.867 209.303C580.053 209.78 580.146 210.271 580.146 210.774C580.146 211.278 580.053 211.768 579.867 212.245C579.695 212.722 579.437 213.153 579.092 213.537C578.748 213.908 578.317 214.213 577.8 214.452C577.283 214.677 576.68 214.79 575.991 214.79ZM587.58 214.79C586.904 214.79 586.308 214.677 585.791 214.452C585.274 214.213 584.837 213.908 584.479 213.537C584.134 213.153 583.876 212.722 583.704 212.245C583.531 211.768 583.445 211.278 583.445 210.774C583.445 210.271 583.531 209.78 583.704 209.303C583.876 208.826 584.134 208.402 584.479 208.031C584.823 207.647 585.254 207.342 585.771 207.117C586.288 206.892 586.891 206.779 587.58 206.779C588.269 206.779 588.872 206.892 589.389 207.117C589.905 207.342 590.336 207.647 590.681 208.031C591.025 208.402 591.284 208.826 591.456 209.303C591.641 209.78 591.734 210.271 591.734 210.774C591.734 211.278 591.641 211.768 591.456 212.245C591.284 212.722 591.025 213.153 590.681 213.537C590.336 213.908 589.905 214.213 589.389 214.452C588.872 214.677 588.269 214.79 587.58 214.79ZM600.898 217.89H613.54C615.541 217.89 617.303 218.156 618.827 218.686C620.351 219.202 621.617 219.891 622.624 220.753C623.644 221.601 624.413 222.568 624.93 223.655C625.447 224.728 625.705 225.815 625.705 226.915C625.705 227.776 625.619 228.631 625.447 229.479C625.274 230.314 624.969 231.109 624.532 231.864C624.095 232.607 623.492 233.282 622.723 233.892C621.968 234.488 621.001 234.972 619.821 235.343C619.993 235.9 620.285 236.589 620.696 237.41C621.107 238.232 621.584 239.12 622.127 240.074C622.67 241.028 623.253 242.015 623.876 243.036C624.499 244.056 625.109 245.043 625.705 245.997H615.528C614.958 244.712 614.375 243.274 613.778 241.684C613.182 240.08 612.705 238.338 612.347 236.456H609.803V245.997H600.898V217.89ZM611.314 232.004C612.321 232.004 613.169 231.871 613.858 231.606C614.56 231.341 615.13 230.996 615.567 230.572C616.005 230.148 616.316 229.671 616.502 229.141C616.7 228.611 616.8 228.081 616.8 227.551C616.8 226.504 616.654 225.649 616.363 224.987C616.071 224.324 615.673 223.807 615.17 223.436C614.666 223.052 614.083 222.794 613.421 222.661C612.758 222.529 612.049 222.462 611.294 222.462H609.803V232.004H611.314ZM644.032 217.89H654.885C656.767 217.89 658.417 218.01 659.835 218.248C661.266 218.474 662.505 218.798 663.552 219.222C664.599 219.646 665.467 220.157 666.156 220.753C666.858 221.349 667.415 222.005 667.826 222.721C668.25 223.423 668.548 224.178 668.72 224.987C668.892 225.795 668.978 226.63 668.978 227.491C668.978 228.22 668.892 228.949 668.72 229.678C668.561 230.407 668.283 231.102 667.885 231.765C667.501 232.428 666.984 233.044 666.335 233.614C665.685 234.183 664.884 234.68 663.93 235.104C662.989 235.529 661.869 235.86 660.57 236.098C659.285 236.337 657.801 236.456 656.118 236.456C655.879 236.456 655.581 236.456 655.223 236.456C654.865 236.443 654.514 236.423 654.17 236.397L652.937 236.317V245.997H644.032V217.89ZM652.937 232.004H654.985C655.939 232.004 656.74 231.891 657.39 231.666C658.039 231.427 658.563 231.109 658.96 230.712C659.358 230.314 659.643 229.844 659.815 229.3C659.987 228.757 660.073 228.174 660.073 227.551C660.073 226.557 659.947 225.736 659.696 225.086C659.444 224.437 659.086 223.92 658.622 223.536C658.172 223.138 657.635 222.86 657.012 222.701C656.389 222.542 655.713 222.462 654.985 222.462H652.937V232.004ZM673.908 217.89H693.15V223.098H682.813V229.101H691.877V234.826H682.813V245.997H673.908V217.89ZM697.741 217.89H706.646V240.273H716.188V245.997H697.741V217.89ZM720.62 217.89H740.339V223.098H729.526V229.042H739.067V234.13H729.526V240.273H740.339V245.997H720.62V217.89ZM760.694 246.574C759.236 246.574 757.844 246.408 756.519 246.077C755.194 245.759 753.962 245.295 752.822 244.685C751.682 244.076 750.649 243.334 749.721 242.459C748.807 241.585 748.018 240.597 747.356 239.497C746.706 238.398 746.203 237.198 745.845 235.9C745.487 234.601 745.308 233.216 745.308 231.745C745.308 229.598 745.732 227.644 746.58 225.881C747.442 224.106 748.634 222.588 750.158 221.329C751.696 220.057 753.518 219.077 755.625 218.387C757.745 217.698 760.071 217.354 762.602 217.354C763.967 217.354 765.411 217.46 766.935 217.672C768.459 217.871 769.983 218.195 771.507 218.646L770.235 225.007C768.87 224.516 767.624 224.178 766.498 223.993C765.371 223.794 764.285 223.695 763.238 223.695C761.846 223.695 760.594 223.894 759.481 224.291C758.368 224.675 757.42 225.219 756.639 225.921C755.857 226.623 755.254 227.478 754.83 228.485C754.419 229.479 754.213 230.579 754.213 231.785C754.213 233.123 754.353 234.316 754.631 235.363C754.909 236.41 755.34 237.298 755.923 238.026C756.506 238.755 757.241 239.312 758.129 239.696C759.03 240.08 760.097 240.273 761.33 240.273H763.874V234.449L759.421 235.045V230.095H771.507V243.533C770.526 244.116 769.579 244.606 768.664 245.003C767.75 245.388 766.849 245.699 765.961 245.938C765.073 246.163 764.192 246.322 763.317 246.415C762.456 246.521 761.581 246.574 760.694 246.574ZM777.629 217.89H797.348V223.098H786.534V229.042H796.076V234.13H786.534V240.273H797.348V245.997H777.629V217.89Z" fill="#A8ACFF"/>
</svg>
