<svg width="49" height="55" viewBox="0 0 49 55" fill="none" xmlns="http://www.w3.org/2000/svg">
<path d="M36.4108 18.8174C41.9486 18.8174 46.4379 23.3067 46.4379 28.8446C46.4379 32.3119 44.6778 35.3675 42.0024 37.1681C41.2421 37.6798 40.8123 38.6077 41.0864 39.4822L41.6821 41.3828C42.3227 43.4267 39.7429 44.9167 38.2926 43.3405L35.5897 40.4025C34.6921 39.4269 33.427 38.8717 32.1013 38.8717H19.0096C13.4717 38.8717 8.98239 34.3824 8.98239 28.8446C8.98239 23.3067 13.4717 18.8174 19.0096 18.8174L36.4108 18.8174Z" stroke="#A8ACFF" stroke-width="2" stroke-linecap="round"/>
<line x1="17.305" y1="7.16211" x2="17.305" y2="30.4385" stroke="#A8ACFF" stroke-width="10.3242" stroke-linecap="round"/>
<line x1="28.6772" y1="18.793" x2="5.40084" y2="18.793" stroke="#A8ACFF" stroke-width="10.3242" stroke-linecap="round"/>
<path d="M22.4675 10.95C22.467 10.8904 22.467 10.8296 22.4675 10.7676V10.95C22.4853 13.0296 23.1311 13.6299 25.2452 13.6384H25.3381C25.3068 13.6385 25.2758 13.6385 25.2452 13.6384H22.4675V10.95Z" fill="#A8ACFF"/>
<path d="M22.4675 26.6174C22.467 26.677 22.467 26.7378 22.4675 26.7998V26.6174C22.4853 24.5378 23.1311 23.9375 25.2452 23.929H25.3381C25.3068 23.9288 25.2758 23.9288 25.2452 23.929H22.4675V26.6174Z" fill="#A8ACFF"/>
<path d="M12.1839 10.95C12.1844 10.8904 12.1844 10.8296 12.1839 10.7676V10.95C12.1662 13.0296 11.5203 13.6299 9.40625 13.6384H9.31336C9.34464 13.6385 9.3756 13.6385 9.40625 13.6384H12.1839V10.95Z" fill="#A8ACFF"/>
<path d="M12.1839 26.6174C12.1844 26.677 12.1844 26.7378 12.1839 26.7998V26.6174C12.1662 24.5378 11.5203 23.9375 9.40625 23.929H9.31336C9.34464 23.9288 9.3756 23.9288 9.40625 23.929H12.1839V26.6174Z" fill="#A8ACFF"/>
</svg>
