<svg width="522" height="475" viewBox="0 0 522 475" fill="none" xmlns="http://www.w3.org/2000/svg">
<path d="M408.196 190.191C470.826 190.191 521.597 240.962 521.597 303.591C521.597 342.804 501.69 377.362 471.434 397.725C462.836 403.512 457.975 414.006 461.075 423.896L467.812 445.39C475.056 468.505 445.88 485.356 429.479 467.531L398.91 434.304C388.759 423.27 374.452 416.992 359.459 416.992H211.4C148.771 416.992 98 366.221 98 303.591C98 240.962 148.771 190.191 211.4 190.191L408.196 190.191Z" fill="#464FF9"/>
<line x1="192.122" y1="58.38" x2="192.123" y2="321.62" stroke="#FF7AE2" stroke-width="116.76" stroke-linecap="round"/>
<line x1="321.62" y1="190.001" x2="58.38" y2="190.001" stroke="#FF7AE2" stroke-width="116.76" stroke-linecap="round"/>
<path d="M250.507 101.214C250.501 100.54 250.501 99.8528 250.507 99.1514V101.214C250.708 124.733 258.012 131.522 281.92 131.619H282.971C282.617 131.62 282.267 131.62 281.92 131.619H250.507V101.214Z" fill="#FF7AE2"/>
<path d="M250.507 278.403C250.501 279.077 250.501 279.764 250.507 280.465V278.403C250.708 254.883 258.012 248.094 281.92 247.998H282.971C282.617 247.997 282.267 247.997 281.92 247.998H250.507V278.403Z" fill="#FF7AE2"/>
<path d="M134.206 101.214C134.212 100.54 134.212 99.8528 134.206 99.1514V101.214C134.005 124.733 126.701 131.522 102.793 131.619H101.742C102.096 131.62 102.446 131.62 102.793 131.619H134.206V101.214Z" fill="#FF7AE2"/>
<path d="M134.206 278.403C134.212 279.077 134.212 279.764 134.206 280.465V278.403C134.005 254.883 126.701 248.094 102.793 247.998H101.742C102.096 247.997 102.446 247.997 102.793 247.998H134.206V278.403Z" fill="#FF7AE2"/>
</svg>
