<svg width="210" height="92" viewBox="0 0 210 92" fill="none" xmlns="http://www.w3.org/2000/svg">
<path d="M98.7224 20.6265C111.746 20.6265 122.304 31.1842 122.304 44.2079C122.304 52.3621 118.164 59.5483 111.873 63.7827C110.085 64.9861 109.074 67.1683 109.718 69.2249L111.119 73.6947C112.626 78.5013 106.559 82.0055 103.148 78.2987L96.7914 71.3893C94.6805 69.0949 91.7053 67.7893 88.5876 67.7893H33.885C20.8614 67.7893 10.3036 57.2315 10.3036 44.2079C10.3036 31.1842 20.8614 20.6265 33.885 20.6265L98.7224 20.6265Z" fill="#464FF9" stroke="#A8ACFF" stroke-width="3" stroke-linecap="round"/>
<line x1="24.0828" y1="7.2201" x2="24.0828" y2="39.7761" stroke="#A8ACFF" stroke-width="14.4402" stroke-linecap="round"/>
<line x1="40.0983" y1="23.4984" x2="7.54224" y2="23.4984" stroke="#A8ACFF" stroke-width="14.4402" stroke-linecap="round"/>
<path d="M31.3034 12.5178C31.3027 12.4345 31.3027 12.3494 31.3034 12.2627V12.5178C31.3282 15.4265 32.2316 16.2661 35.1884 16.2781H35.3183C35.2746 16.2782 35.2313 16.2782 35.1884 16.2781H31.3034V12.5178Z" fill="#A8ACFF"/>
<path d="M31.3034 34.431C31.3027 34.5143 31.3027 34.5993 31.3034 34.686V34.431C31.3282 31.5222 32.2316 30.6826 35.1884 30.6707H35.3183C35.2746 30.6705 35.2313 30.6705 35.1884 30.6707H31.3034V34.431Z" fill="#A8ACFF"/>
<path d="M16.92 12.5178C16.9207 12.4345 16.9207 12.3494 16.92 12.2627V12.5178C16.8952 15.4265 15.9918 16.2661 13.035 16.2781H12.905C12.9488 16.2782 12.9921 16.2782 13.035 16.2781H16.92V12.5178Z" fill="#A8ACFF"/>
<path d="M16.92 34.431C16.9207 34.5143 16.9207 34.5993 16.92 34.686V34.431C16.8952 31.5222 15.9918 30.6826 13.035 30.6707H12.905C12.9488 30.6705 12.9921 30.6705 13.035 30.6707H16.92V34.431Z" fill="#A8ACFF"/>
<path d="M38.5417 34.0511H42.4115C43.0824 34.0511 43.6707 34.0937 44.1762 34.1787C44.6865 34.259 45.1283 34.3748 45.5016 34.526C45.8748 34.6772 46.1843 34.8591 46.43 35.0717C46.6804 35.2843 46.8789 35.5182 47.0254 35.7734C47.1766 36.0238 47.2829 36.2931 47.3443 36.5813C47.4057 36.8696 47.4364 37.1672 47.4364 37.4744C47.4364 37.7342 47.4057 37.9941 47.3443 38.254C47.2876 38.5138 47.1884 38.7619 47.0466 38.9982C46.9096 39.2344 46.7253 39.4541 46.4938 39.6573C46.2623 39.8605 45.9764 40.0376 45.6362 40.1888C45.3008 40.34 44.9015 40.4582 44.4385 40.5432C43.9801 40.6283 43.4509 40.6708 42.8509 40.6708C42.7658 40.6708 42.6595 40.6708 42.5319 40.6708C42.4044 40.6661 42.2792 40.659 42.1563 40.6495L41.7169 40.6212V44.0728H38.5417V34.0511ZM41.7169 39.0832H42.4469C42.7871 39.0832 43.0729 39.043 43.3045 38.9627C43.536 38.8777 43.7226 38.7643 43.8644 38.6225C44.0061 38.4808 44.1077 38.313 44.1691 38.1193C44.2306 37.9256 44.2613 37.7177 44.2613 37.4956C44.2613 37.1412 44.2164 36.8483 44.1266 36.6168C44.0368 36.3853 43.9093 36.201 43.7439 36.064C43.5832 35.9222 43.3919 35.823 43.1698 35.7663C42.9477 35.7096 42.7068 35.6812 42.4469 35.6812H41.7169V39.0832ZM49.187 34.0511H53.6946C54.4081 34.0511 55.0365 34.1456 55.5799 34.3346C56.1233 34.5189 56.5745 34.7646 56.9336 35.0717C57.2974 35.3741 57.5715 35.719 57.7557 36.1065C57.94 36.4892 58.0322 36.8766 58.0322 37.2688C58.0322 37.5759 58.0014 37.8807 57.94 38.1831C57.8786 38.4808 57.7699 38.7643 57.614 39.0336C57.4581 39.2982 57.2431 39.5392 56.969 39.7565C56.6997 39.9691 56.3548 40.1416 55.9343 40.2739C55.9957 40.4723 56.0996 40.718 56.2461 41.011C56.3926 41.3039 56.5627 41.6205 56.7564 41.9607C56.9501 42.3009 57.158 42.6529 57.3801 43.0167C57.6022 43.3805 57.8195 43.7326 58.0322 44.0728H54.4034C54.2002 43.6144 53.9923 43.1018 53.7797 42.5348C53.5671 41.9631 53.397 41.3417 53.2694 40.6708H52.3622V44.0728H49.187V34.0511ZM52.9009 39.0832C53.2599 39.0832 53.5623 39.036 53.808 38.9415C54.0585 38.847 54.2616 38.7241 54.4176 38.5729C54.5735 38.4217 54.6845 38.2516 54.7507 38.0626C54.8215 37.8736 54.857 37.6846 54.857 37.4956C54.857 37.1223 54.805 36.8176 54.7011 36.5813C54.5971 36.3451 54.4554 36.1608 54.2758 36.0285C54.0963 35.8915 53.8884 35.7994 53.6521 35.7521C53.4159 35.7049 53.1631 35.6812 52.8938 35.6812H52.3622V39.0832H52.9009ZM68.1176 44.0728H64.3329L63.8651 41.9394H61.3774L60.9309 44.0728H58.3723L60.9238 34.0511H65.3606L68.1176 44.0728ZM62.6532 35.6104L61.6822 40.281H63.7092L62.8729 35.6104H62.6532ZM75.7153 39.0832L78.2101 44.0728H74.3545L73.0788 40.2952L71.3636 44.0728H68.4578L70.9525 39.0832L68.4578 34.0511H72.3133L73.8442 37.6019L75.4885 34.0511H78.2101L75.7153 39.0832ZM79.6984 34.0511H82.8736V44.0728H79.6984V34.0511ZM92.4416 36.6522C92.2479 36.5672 92.0211 36.4821 91.7612 36.3971C91.5061 36.3073 91.2368 36.227 90.9533 36.1561C90.6745 36.0852 90.391 36.0285 90.1028 35.986C89.8146 35.9387 89.5429 35.9151 89.2877 35.9151C88.8436 35.9151 88.4963 35.9718 88.2459 36.0852C87.9954 36.1986 87.8702 36.39 87.8702 36.6593C87.8702 36.7869 87.9128 36.9003 87.9978 36.9995C88.0876 37.094 88.2128 37.1838 88.3734 37.2688C88.5341 37.3491 88.7255 37.4295 88.9475 37.5098C89.1743 37.5854 89.4247 37.6657 89.6988 37.7508L90.2162 37.9138C90.6509 38.0461 91.0407 38.2067 91.3856 38.3957C91.7305 38.58 92.0211 38.7997 92.2574 39.0549C92.4983 39.3053 92.6826 39.5935 92.8102 39.9195C92.9377 40.2455 93.0015 40.6165 93.0015 41.0322C93.0015 41.5189 92.9236 41.9631 92.7677 42.3647C92.6165 42.7616 92.3778 43.1018 92.0518 43.3853C91.7258 43.6688 91.3076 43.8885 90.7973 44.0444C90.2918 44.2003 89.6823 44.2783 88.9688 44.2783C88.3356 44.2783 87.7049 44.2263 87.0764 44.1224C86.4528 44.0184 85.822 43.8365 85.1841 43.5766V41.2378C85.7936 41.5496 86.3842 41.7788 86.956 41.9253C87.5324 42.067 88.0994 42.1379 88.6569 42.1379C89.1153 42.1379 89.4484 42.0646 89.6563 41.9182C89.8689 41.7717 89.9752 41.5685 89.9752 41.3087C89.9752 41.1527 89.935 41.0204 89.8547 40.9118C89.7791 40.7984 89.6539 40.6944 89.4791 40.5999C89.309 40.5054 89.0845 40.4109 88.8058 40.3164C88.527 40.2172 88.1892 40.1062 87.7923 39.9833C87.3954 39.8652 87.0268 39.7163 86.6866 39.5368C86.3512 39.3572 86.0606 39.1423 85.8149 38.8918C85.5692 38.6367 85.3755 38.3414 85.2337 38.0059C85.0967 37.6704 85.0282 37.2877 85.0282 36.8577C85.0282 36.4136 85.1061 36.0073 85.2621 35.6387C85.418 35.2702 85.6566 34.956 85.9779 34.6961C86.2992 34.4315 86.7055 34.2259 87.1969 34.0795C87.6931 33.933 88.2813 33.8598 88.9617 33.8598C89.231 33.8598 89.5169 33.8716 89.8193 33.8952C90.1217 33.9188 90.4288 33.9543 90.7406 34.0015C91.0572 34.0488 91.3691 34.1102 91.6762 34.1858C91.9833 34.2614 92.2739 34.3512 92.5479 34.4551L92.4416 36.6522Z" fill="#A8ACFF"/>
<path d="M38.5417 46.7362H41.7169V54.7166H45.1189V56.7578H38.5417V46.7362ZM50.5974 56.9633C49.9785 56.9633 49.4256 56.8948 48.939 56.7578C48.4523 56.6255 48.0223 56.4412 47.6491 56.205C47.2805 55.964 46.9663 55.6805 46.7064 55.3545C46.4513 55.0238 46.241 54.667 46.0757 54.2843C45.915 53.8969 45.7969 53.4905 45.7213 53.0653C45.6504 52.64 45.615 52.2077 45.615 51.7683C45.615 51.3336 45.6599 50.9036 45.7496 50.4783C45.8394 50.0484 45.9741 49.6397 46.1536 49.2522C46.3332 48.8648 46.56 48.5057 46.834 48.1749C47.1081 47.8442 47.4294 47.5583 47.7979 47.3174C48.1664 47.0764 48.5822 46.8874 49.0453 46.7504C49.5131 46.6133 50.0304 46.5448 50.5974 46.5448C51.1644 46.5448 51.6795 46.6133 52.1425 46.7504C52.6103 46.8874 53.0284 47.0764 53.397 47.3174C53.7702 47.5583 54.0939 47.8442 54.3679 48.1749C54.642 48.5057 54.8688 48.8648 55.0483 49.2522C55.2326 49.6397 55.3696 50.0484 55.4594 50.4783C55.5492 50.9036 55.5941 51.3336 55.5941 51.7683C55.5941 52.2077 55.5563 52.64 55.4807 53.0653C55.4051 53.4905 55.2846 53.8969 55.1192 54.2843C54.9586 54.667 54.7483 55.0238 54.4884 55.3545C54.2286 55.6805 53.9144 55.964 53.5458 56.205C53.1773 56.4412 52.7473 56.6255 52.2559 56.7578C51.7692 56.8948 51.2164 56.9633 50.5974 56.9633ZM48.7901 51.7683C48.7901 52.3353 48.8303 52.8196 48.9106 53.2212C48.9957 53.6228 49.1138 53.9512 49.265 54.2063C49.4209 54.4615 49.6099 54.6481 49.832 54.7662C50.0588 54.8844 50.3139 54.9434 50.5974 54.9434C50.8809 54.9434 51.1337 54.8844 51.3558 54.7662C51.5826 54.6481 51.7739 54.4615 51.9299 54.2063C52.0905 53.9512 52.211 53.6228 52.2913 53.2212C52.3764 52.8196 52.4189 52.3353 52.4189 51.7683C52.4189 51.2013 52.3764 50.717 52.2913 50.3153C52.211 49.909 52.0905 49.5782 51.9299 49.3231C51.7739 49.0632 51.5826 48.8719 51.3558 48.749C51.1337 48.6262 50.8809 48.5647 50.5974 48.5647C50.3139 48.5647 50.0588 48.6262 49.832 48.749C49.6099 48.8719 49.4209 49.0632 49.265 49.3231C49.1138 49.5782 48.9957 49.909 48.9106 50.3153C48.8303 50.717 48.7901 51.2013 48.7901 51.7683ZM62.0011 56.9633C61.2971 56.9633 60.664 56.8618 60.1017 56.6586C59.5441 56.4507 59.0693 56.1412 58.6771 55.7301C58.2849 55.3143 57.9849 54.7946 57.777 54.1709C57.5691 53.5472 57.4652 52.8172 57.4652 51.9809V46.7362H60.6403V51.9951C60.6403 52.4628 60.664 52.8786 60.7112 53.2424C60.7585 53.6063 60.8388 53.9158 60.9522 54.1709C61.0656 54.4213 61.2168 54.6127 61.4058 54.745C61.5948 54.8773 61.831 54.9434 62.1145 54.9434C62.4264 54.9434 62.6768 54.8773 62.8658 54.745C63.0595 54.6127 63.2083 54.4213 63.3123 54.1709C63.421 53.9158 63.4942 53.6063 63.532 53.2424C63.5698 52.8786 63.5887 52.4628 63.5887 51.9951V46.7362H66.2394V51.9809C66.2394 52.8219 66.1567 53.5543 65.9913 54.178C65.826 54.8017 65.5685 55.3214 65.2188 55.7372C64.8739 56.1483 64.4345 56.4554 63.9005 56.6586C63.3713 56.8618 62.7382 56.9633 62.0011 56.9633ZM68.6633 46.7362H71.7322L75.5452 51.7683V46.7362H77.9691V56.7578H74.8223L71.0659 51.4281V56.7578H68.6633V46.7362ZM85.3258 56.9633C84.8061 56.9633 84.31 56.9043 83.8375 56.7862C83.365 56.6728 82.9256 56.5074 82.5192 56.29C82.1129 56.0727 81.7443 55.8081 81.4136 55.4962C81.0876 55.1844 80.8064 54.8324 80.5702 54.4402C80.3387 54.0481 80.1591 53.6204 80.0315 53.1574C79.904 52.6944 79.8402 52.2006 79.8402 51.6761C79.8402 50.9107 79.9914 50.2138 80.2938 49.5853C80.6009 48.9522 81.0261 48.4112 81.5695 47.9623C82.1176 47.5087 82.7673 47.1591 83.5186 46.9134C84.2745 46.6677 85.1038 46.5448 86.0062 46.5448C86.4929 46.5448 87.0079 46.5826 87.5513 46.6582C88.0947 46.7291 88.638 46.8449 89.1814 47.0055L88.7278 49.2735C88.2411 49.0987 87.797 48.9782 87.3954 48.912C86.9938 48.8412 86.6063 48.8057 86.233 48.8057C85.7369 48.8057 85.2904 48.8766 84.8935 49.0183C84.4966 49.1554 84.1588 49.3491 83.88 49.5995C83.6012 49.8499 83.3863 50.1547 83.2351 50.5138C83.0886 50.8682 83.0153 51.2603 83.0153 51.6903C83.0153 52.1675 83.065 52.5928 83.1642 52.966C83.2634 53.3393 83.417 53.6559 83.6249 53.9158C83.8328 54.1756 84.095 54.3741 84.4116 54.5111C84.7329 54.6481 85.1132 54.7166 85.5526 54.7166H86.4598V52.64L84.8723 52.8526V51.0879H89.1814V55.879C88.8318 56.0869 88.4939 56.2617 88.1679 56.4034C87.8419 56.5405 87.5206 56.6515 87.204 56.7366C86.8874 56.8169 86.5732 56.8736 86.2614 56.9066C85.9543 56.9444 85.6424 56.9633 85.3258 56.9633ZM91.3643 46.7362H98.3951V48.5931H94.5395V50.7122H97.9415V52.5266H94.5395V54.7166H98.3951V56.7578H91.3643V46.7362Z" fill="#A8ACFF"/>
<line x1="132.684" y1="24.6336" x2="132.684" y2="66.8637" stroke="#A8ACFF" stroke-width="1.3034" stroke-linecap="round"/>
<path d="M142.564 29.4217H144.885V36.7485H142.564V29.4217ZM146.652 29.4217H148.896L151.684 33.1006V29.4217H153.456V36.7485H151.155L148.409 32.8519V36.7485H146.652V29.4217ZM156.052 36.7485V31.1109H154.394V29.4217H160.068V31.1109H158.373V36.7485H156.052ZM161.011 29.4217H166.151V30.7792H163.332V32.3286H165.819V33.6551H163.332V35.2562H166.151V36.7485H161.011V29.4217ZM167.845 29.4217H171.141C171.662 29.4217 172.122 29.4907 172.519 29.6289C172.916 29.7636 173.246 29.9433 173.509 30.1678C173.775 30.3889 173.975 30.6411 174.11 30.9243C174.245 31.2041 174.312 31.4874 174.312 31.7741C174.312 31.9987 174.29 32.2215 174.245 32.4426C174.2 32.6602 174.12 32.8675 174.006 33.0644C173.892 33.2578 173.735 33.434 173.535 33.5929C173.338 33.7483 173.086 33.8744 172.778 33.9712C172.823 34.1162 172.899 34.2959 173.006 34.5101C173.113 34.7242 173.238 34.9557 173.379 35.2044C173.521 35.4531 173.673 35.7105 173.835 35.9765C173.998 36.2425 174.157 36.4998 174.312 36.7485H171.659C171.51 36.4135 171.358 36.0386 171.203 35.6241C171.048 35.2061 170.923 34.7519 170.83 34.2613H170.167V36.7485H167.845V29.4217ZM170.56 33.1006C170.823 33.1006 171.044 33.0661 171.224 32.997C171.407 32.9279 171.555 32.8381 171.669 32.7276C171.783 32.617 171.865 32.4927 171.913 32.3545C171.965 32.2163 171.991 32.0781 171.991 31.9399C171.991 31.667 171.953 31.4442 171.877 31.2715C171.801 31.0988 171.697 30.9641 171.566 30.8673C171.434 30.7672 171.282 30.6998 171.11 30.6653C170.937 30.6307 170.752 30.6134 170.555 30.6134H170.167V33.1006H170.56ZM175.39 29.4217H177.633L180.421 33.1006V29.4217H182.193V36.7485H179.893L177.146 32.8519V36.7485H175.39V29.4217ZM183.965 29.4217H189.106V30.7792H186.287V32.3286H188.774V33.6551H186.287V35.2562H189.106V36.7485H183.965V29.4217ZM142.155 47.1006C142.155 46.5099 142.26 45.9797 142.471 45.5099C142.685 45.0366 142.973 44.6359 143.336 44.3077C143.699 43.9761 144.12 43.7222 144.6 43.546C145.08 43.3698 145.59 43.2817 146.129 43.2817C146.505 43.2817 146.889 43.318 147.279 43.3906C147.67 43.4631 148.058 43.5944 148.445 43.7844L148.124 45.4425C147.82 45.2767 147.519 45.1523 147.222 45.0694C146.925 44.9865 146.652 44.9451 146.404 44.9451C146.103 44.9451 145.834 44.9952 145.595 45.0953C145.357 45.1921 145.155 45.3337 144.989 45.5202C144.823 45.7068 144.695 45.933 144.605 46.199C144.519 46.465 144.476 46.7656 144.476 47.1006C144.476 47.4357 144.519 47.7363 144.605 48.0022C144.695 48.2682 144.823 48.4945 144.989 48.681C145.155 48.8676 145.357 49.0109 145.595 49.1111C145.834 49.2079 146.103 49.2562 146.404 49.2562C146.652 49.2562 146.925 49.2148 147.222 49.1319C147.519 49.0489 147.82 48.9246 148.124 48.7588L148.445 50.4169C148.058 50.6034 147.67 50.7295 147.279 50.7952C146.889 50.8643 146.505 50.8988 146.129 50.8988C145.59 50.8988 145.08 50.8124 144.6 50.6397C144.12 50.4635 143.699 50.2131 143.336 49.8884C142.973 49.5602 142.685 49.1612 142.471 48.6914C142.26 48.2216 142.155 47.6913 142.155 47.1006ZM149.963 43.4217H152.285V46.2716H154.44V43.4217H156.762V50.7485H154.44V47.7639H152.285V50.7485H149.963V43.4217ZM164.824 50.7485H162.057L161.715 49.1889H159.897L159.57 50.7485H157.7L159.565 43.4217H162.809L164.824 50.7485ZM160.829 44.5616L160.119 47.9763H161.601L160.99 44.5616H160.829ZM165.762 50.7485V45.1109H164.104V43.4217H169.778V45.1109H168.084V50.7485H165.762ZM180.711 50.7485H177.944L177.602 49.1889H175.784L175.457 50.7485H173.587L175.452 43.4217H178.696L180.711 50.7485ZM176.716 44.5616L176.006 47.9763H177.488L176.877 44.5616H176.716ZM181.649 43.4217H184.478C184.969 43.4217 185.399 43.4527 185.769 43.5149C186.142 43.5736 186.465 43.6583 186.738 43.7688C187.011 43.8794 187.237 44.0124 187.416 44.1678C187.6 44.3233 187.745 44.4943 187.852 44.6808C187.962 44.8639 188.04 45.0608 188.085 45.2715C188.13 45.4822 188.152 45.6999 188.152 45.9244C188.152 46.1144 188.13 46.3044 188.085 46.4944C188.043 46.6844 187.971 46.8657 187.867 47.0385C187.767 47.2112 187.632 47.3718 187.463 47.5204C187.294 47.6689 187.085 47.7984 186.836 47.909C186.591 48.0195 186.299 48.1059 185.96 48.1681C185.625 48.2302 185.238 48.2613 184.8 48.2613C184.738 48.2613 184.66 48.2613 184.567 48.2613C184.473 48.2579 184.382 48.2527 184.292 48.2458L183.971 48.2251V50.7485H181.649V43.4217ZM183.971 47.1006H184.504C184.753 47.1006 184.962 47.0713 185.131 47.0125C185.301 46.9504 185.437 46.8675 185.541 46.7638C185.644 46.6602 185.719 46.5376 185.763 46.3959C185.808 46.2543 185.831 46.1023 185.831 45.9399C185.831 45.6809 185.798 45.4667 185.732 45.2974C185.667 45.1281 185.573 44.9934 185.453 44.8932C185.335 44.7896 185.195 44.7171 185.033 44.6756C184.871 44.6342 184.694 44.6134 184.504 44.6134H183.971V47.1006ZM189.432 43.4217H192.261C192.752 43.4217 193.182 43.4527 193.552 43.5149C193.925 43.5736 194.248 43.6583 194.521 43.7688C194.793 43.8794 195.02 44.0124 195.199 44.1678C195.382 44.3233 195.527 44.4943 195.635 44.6808C195.745 44.8639 195.823 45.0608 195.868 45.2715C195.913 45.4822 195.935 45.6999 195.935 45.9244C195.935 46.1144 195.913 46.3044 195.868 46.4944C195.826 46.6844 195.754 46.8657 195.65 47.0385C195.55 47.2112 195.415 47.3718 195.246 47.5204C195.077 47.6689 194.868 47.7984 194.619 47.909C194.374 48.0195 194.082 48.1059 193.743 48.1681C193.408 48.2302 193.021 48.2613 192.583 48.2613C192.52 48.2613 192.443 48.2613 192.349 48.2613C192.256 48.2579 192.165 48.2527 192.075 48.2458L191.754 48.2251V50.7485H189.432V43.4217ZM191.754 47.1006H192.287C192.536 47.1006 192.745 47.0713 192.914 47.0125C193.083 46.9504 193.22 46.8675 193.324 46.7638C193.427 46.6602 193.501 46.5376 193.546 46.3959C193.591 46.2543 193.614 46.1023 193.614 45.9399C193.614 45.6809 193.581 45.4667 193.515 45.2974C193.45 45.1281 193.356 44.9934 193.235 44.8932C193.118 44.7896 192.978 44.7171 192.816 44.6756C192.653 44.6342 192.477 44.6134 192.287 44.6134H191.754V47.1006ZM142.564 57.4217H147.58V58.7792H144.885V60.3441H147.248V61.8364H144.885V64.7485H142.564V57.4217ZM152.093 64.8988C151.578 64.8988 151.115 64.8245 150.704 64.676C150.297 64.524 149.95 64.2977 149.663 63.9972C149.376 63.6932 149.157 63.3132 149.005 62.8572C148.853 62.4012 148.777 61.8675 148.777 61.2561V57.4217H151.098V61.2665C151.098 61.6084 151.115 61.9124 151.15 62.1784C151.184 62.4444 151.243 62.6707 151.326 62.8572C151.409 63.0403 151.52 63.1802 151.658 63.2769C151.796 63.3737 151.969 63.422 152.176 63.422C152.404 63.422 152.587 63.3737 152.725 63.2769C152.867 63.1802 152.976 63.0403 153.052 62.8572C153.131 62.6707 153.185 62.4444 153.212 62.1784C153.24 61.9124 153.254 61.6084 153.254 61.2665V57.4217H155.192V61.2561C155.192 61.871 155.131 62.4064 155.01 62.8624C154.889 63.3184 154.701 63.6984 154.445 64.0024C154.193 64.3029 153.872 64.5275 153.482 64.676C153.095 64.8245 152.632 64.8988 152.093 64.8988ZM150.471 56.6133C150.295 56.6133 150.139 56.5839 150.005 56.5252C149.87 56.463 149.756 56.3836 149.663 56.2869C149.573 56.1867 149.506 56.0744 149.461 55.9501C149.416 55.8257 149.393 55.6979 149.393 55.5666C149.393 55.4353 149.416 55.3075 149.461 55.1832C149.506 55.0588 149.573 54.9483 149.663 54.8515C149.753 54.7514 149.865 54.6719 150 54.6132C150.134 54.5545 150.291 54.5251 150.471 54.5251C150.651 54.5251 150.808 54.5545 150.943 54.6132C151.077 54.6719 151.19 54.7514 151.279 54.8515C151.369 54.9483 151.437 55.0588 151.482 55.1832C151.53 55.3075 151.554 55.4353 151.554 55.5666C151.554 55.6979 151.53 55.8257 151.482 55.9501C151.437 56.0744 151.369 56.1867 151.279 56.2869C151.19 56.3836 151.077 56.463 150.943 56.5252C150.808 56.5839 150.651 56.6133 150.471 56.6133ZM153.492 56.6133C153.316 56.6133 153.16 56.5839 153.026 56.5252C152.891 56.463 152.777 56.3836 152.684 56.2869C152.594 56.1867 152.527 56.0744 152.482 55.9501C152.437 55.8257 152.414 55.6979 152.414 55.5666C152.414 55.4353 152.437 55.3075 152.482 55.1832C152.527 55.0588 152.594 54.9483 152.684 54.8515C152.774 54.7514 152.886 54.6719 153.021 54.6132C153.155 54.5545 153.312 54.5251 153.492 54.5251C153.672 54.5251 153.829 54.5545 153.964 54.6132C154.098 54.6719 154.211 54.7514 154.3 54.8515C154.39 54.9483 154.458 55.0588 154.502 55.1832C154.551 55.3075 154.575 55.4353 154.575 55.5666C154.575 55.6979 154.551 55.8257 154.502 55.9501C154.458 56.0744 154.39 56.1867 154.3 56.2869C154.211 56.3836 154.098 56.463 153.964 56.5252C153.829 56.5839 153.672 56.6133 153.492 56.6133ZM156.964 57.4217H160.259C160.781 57.4217 161.24 57.4907 161.638 57.6289C162.035 57.7636 162.365 57.9433 162.627 58.1678C162.893 58.3889 163.094 58.6411 163.228 58.9243C163.363 59.2041 163.43 59.4874 163.43 59.7741C163.43 59.9987 163.408 60.2215 163.363 60.4426C163.318 60.6602 163.239 60.8675 163.125 61.0644C163.011 61.2578 162.854 61.434 162.653 61.5929C162.456 61.7483 162.204 61.8744 161.897 61.9712C161.942 62.1162 162.018 62.2959 162.125 62.5101C162.232 62.7242 162.356 62.9557 162.498 63.2044C162.639 63.4531 162.791 63.7105 162.954 63.9765C163.116 64.2425 163.275 64.4998 163.43 64.7485H160.777C160.629 64.4135 160.477 64.0386 160.321 63.6241C160.166 63.2061 160.042 62.7519 159.948 62.2613H159.285V64.7485H156.964V57.4217ZM159.679 61.1006C159.941 61.1006 160.163 61.0661 160.342 60.997C160.525 60.9279 160.674 60.8381 160.788 60.7276C160.902 60.617 160.983 60.4927 161.031 60.3545C161.083 60.2163 161.109 60.0781 161.109 59.9399C161.109 59.667 161.071 59.4442 160.995 59.2715C160.919 59.0988 160.815 58.9641 160.684 58.8673C160.553 58.7672 160.401 58.6998 160.228 58.6653C160.055 58.6307 159.871 58.6134 159.674 58.6134H159.285V61.1006H159.679ZM168.208 57.4217H171.037C171.528 57.4217 171.958 57.4527 172.327 57.5149C172.7 57.5736 173.023 57.6583 173.296 57.7688C173.569 57.8794 173.796 58.0124 173.975 58.1678C174.158 58.3233 174.303 58.4943 174.41 58.6808C174.521 58.8639 174.599 59.0608 174.644 59.2715C174.689 59.4822 174.711 59.6999 174.711 59.9244C174.711 60.1144 174.689 60.3044 174.644 60.4944C174.602 60.6844 174.53 60.8657 174.426 61.0385C174.326 61.2112 174.191 61.3718 174.022 61.5204C173.853 61.6689 173.644 61.7984 173.395 61.909C173.15 62.0195 172.858 62.1059 172.519 62.1681C172.184 62.2302 171.797 62.2613 171.358 62.2613C171.296 62.2613 171.219 62.2613 171.125 62.2613C171.032 62.2579 170.94 62.2527 170.851 62.2458L170.529 62.2251V64.7485H168.208V57.4217ZM170.529 61.1006H171.063C171.312 61.1006 171.521 61.0713 171.69 61.0125C171.859 60.9504 171.996 60.8675 172.099 60.7638C172.203 60.6602 172.277 60.5376 172.322 60.3959C172.367 60.2543 172.39 60.1023 172.39 59.9399C172.39 59.6809 172.357 59.4667 172.291 59.2974C172.226 59.1281 172.132 58.9934 172.011 58.8932C171.894 58.7896 171.754 58.7171 171.592 58.6756C171.429 58.6342 171.253 58.6134 171.063 58.6134H170.529V61.1006ZM175.996 57.4217H181.012V58.7792H178.317V60.3441H180.68V61.8364H178.317V64.7485H175.996V57.4217ZM182.209 57.4217H184.53V63.2562H187.017V64.7485H182.209V57.4217ZM188.173 57.4217H193.313V58.7792H190.494V60.3286H192.982V61.6551H190.494V63.2562H193.313V64.7485H188.173V57.4217ZM198.619 64.8988C198.239 64.8988 197.877 64.8556 197.531 64.7693C197.186 64.6864 196.864 64.5654 196.567 64.4065C196.27 64.2476 196.001 64.0542 195.759 63.8262C195.521 63.5982 195.315 63.3408 195.142 63.0541C194.973 62.7674 194.842 62.4548 194.749 62.1162C194.655 61.7777 194.609 61.4167 194.609 61.0333C194.609 60.4737 194.719 59.9641 194.94 59.5047C195.165 59.0418 195.476 58.6463 195.873 58.3181C196.274 57.9865 196.749 57.7308 197.298 57.5512C197.851 57.3716 198.457 57.2817 199.117 57.2817C199.472 57.2817 199.849 57.3094 200.246 57.3647C200.644 57.4165 201.041 57.5011 201.438 57.6186L201.106 59.2767C200.751 59.1489 200.426 59.0608 200.132 59.0124C199.839 58.9606 199.555 58.9347 199.282 58.9347C198.92 58.9347 198.593 58.9865 198.303 59.0901C198.013 59.1903 197.766 59.332 197.562 59.515C197.358 59.6981 197.201 59.9209 197.091 60.1835C196.984 60.4426 196.93 60.7293 196.93 61.0436C196.93 61.3925 196.966 61.7034 197.039 61.9763C197.111 62.2492 197.224 62.4807 197.376 62.6707C197.528 62.8607 197.719 63.0058 197.951 63.1059C198.186 63.2061 198.464 63.2562 198.785 63.2562H199.448V61.738L198.288 61.8934V60.6032H201.438V64.106C201.182 64.258 200.935 64.3858 200.697 64.4895C200.459 64.5896 200.224 64.6708 199.992 64.733C199.761 64.7917 199.531 64.8332 199.303 64.8574C199.079 64.885 198.851 64.8988 198.619 64.8988ZM203.034 57.4217H208.174V58.7792H205.355V60.3286H207.843V61.6551H205.355V63.2562H208.174V64.7485H203.034V57.4217Z" fill="#A8ACFF"/>
</svg>
