<svg width="469" height="351" viewBox="0 0 469 351" fill="none" xmlns="http://www.w3.org/2000/svg">
<path d="M377.476 79.1265C427.437 79.1265 467.938 119.627 467.938 169.588C467.938 200.869 452.058 228.436 427.922 244.679C421.063 249.296 417.185 257.667 419.658 265.557L425.033 282.703C430.811 301.142 407.537 314.585 394.454 300.365L370.069 273.859C361.971 265.058 350.558 260.049 338.598 260.049H128.752C78.7912 260.049 38.2903 219.548 38.2903 169.588C38.2903 119.627 78.7912 79.1265 128.752 79.1265L377.476 79.1265Z" fill="#464FF9"/>
<line x1="91.1488" y1="27.6972" x2="91.1488" y2="152.586" stroke="#EA77D1" stroke-width="55.3945" stroke-linecap="round"/>
<line x1="152.586" y1="90.1426" x2="27.6972" y2="90.1426" stroke="#EA77D1" stroke-width="55.3945" stroke-linecap="round"/>
<path d="M118.848 48.019C118.845 47.6994 118.845 47.3733 118.848 47.0405V48.019C118.943 59.1774 122.409 62.3983 133.752 62.444H134.25C134.082 62.4446 133.916 62.4446 133.752 62.444H118.848V48.019Z" fill="#EA77D1"/>
<path d="M118.848 132.083C118.845 132.402 118.845 132.728 118.848 133.061V132.083C118.943 120.924 122.409 117.703 133.752 117.658H134.25C134.082 117.657 133.916 117.657 133.752 117.658H118.848V132.083Z" fill="#EA77D1"/>
<path d="M63.6715 48.019C63.6743 47.6994 63.6742 47.3733 63.6715 47.0405V48.019C63.5762 59.1774 60.1109 62.3983 48.768 62.444H48.2696C48.4374 62.4446 48.6036 62.4446 48.768 62.444H63.6715V48.019Z" fill="#EA77D1"/>
<path d="M63.6715 132.083C63.6743 132.402 63.6742 132.728 63.6715 133.061V132.083C63.5762 120.924 60.1109 117.703 48.768 117.658H48.2696C48.4374 117.657 48.6036 117.657 48.768 117.658H63.6715V132.083Z" fill="#EA77D1"/>
<path d="M146.615 129.247H161.46C164.034 129.247 166.291 129.41 168.23 129.737C170.188 130.045 171.882 130.489 173.314 131.069C174.746 131.649 175.933 132.347 176.876 133.162C177.837 133.978 178.598 134.875 179.16 135.854C179.74 136.815 180.148 137.848 180.383 138.953C180.619 140.059 180.737 141.201 180.737 142.379C180.737 143.376 180.619 144.373 180.383 145.37C180.166 146.367 179.785 147.318 179.241 148.225C178.716 149.131 178.009 149.974 177.121 150.753C176.232 151.532 175.136 152.212 173.831 152.792C172.544 153.372 171.012 153.825 169.236 154.152C167.478 154.478 165.448 154.641 163.146 154.641C162.82 154.641 162.412 154.641 161.922 154.641C161.433 154.623 160.953 154.596 160.481 154.559L158.796 154.451V167.691H146.615V129.247ZM158.796 148.551H161.596C162.901 148.551 163.998 148.397 164.886 148.089C165.774 147.762 166.49 147.327 167.034 146.784C167.577 146.24 167.967 145.596 168.203 144.853C168.438 144.11 168.556 143.313 168.556 142.461C168.556 141.101 168.384 139.977 168.04 139.089C167.695 138.201 167.206 137.494 166.572 136.969C165.955 136.425 165.221 136.044 164.369 135.827C163.517 135.609 162.593 135.5 161.596 135.5H158.796V148.551ZM187.452 129.247H204.744C207.481 129.247 209.892 129.61 211.976 130.335C214.06 131.042 215.791 131.984 217.169 133.162C218.565 134.322 219.616 135.645 220.323 137.132C221.03 138.6 221.383 140.086 221.383 141.591C221.383 142.769 221.265 143.938 221.03 145.098C220.794 146.24 220.377 147.327 219.779 148.361C219.181 149.376 218.356 150.3 217.305 151.134C216.272 151.949 214.949 152.611 213.335 153.118C213.571 153.88 213.97 154.822 214.532 155.946C215.094 157.07 215.746 158.284 216.489 159.589C217.232 160.894 218.03 162.245 218.882 163.64C219.734 165.036 220.568 166.386 221.383 167.691H207.463C206.683 165.933 205.886 163.967 205.07 161.792C204.255 159.598 203.602 157.215 203.113 154.641H199.633V167.691H187.452V129.247ZM201.699 148.551C203.076 148.551 204.236 148.37 205.179 148.007C206.14 147.645 206.919 147.173 207.517 146.593C208.115 146.013 208.541 145.361 208.795 144.636C209.067 143.911 209.203 143.186 209.203 142.461C209.203 141.029 209.003 139.86 208.605 138.953C208.206 138.047 207.662 137.34 206.973 136.833C206.285 136.307 205.487 135.954 204.581 135.772C203.675 135.591 202.705 135.5 201.672 135.5H199.633V148.551H201.699ZM260.072 167.691H245.554L243.759 159.508H234.216L232.503 167.691H222.688L232.476 129.247H249.496L260.072 167.691ZM239.11 135.229L235.385 153.146H243.161L239.953 135.229H239.11ZM289.218 148.551L298.788 167.691H283.998L279.104 153.2L272.524 167.691H261.377L270.947 148.551L261.377 129.247H276.168L282.04 142.868L288.348 129.247H298.788L289.218 148.551ZM304.498 129.247H316.678V167.691H304.498V129.247ZM353.382 139.225C352.639 138.899 351.769 138.573 350.772 138.246C349.794 137.902 348.76 137.594 347.673 137.322C346.603 137.05 345.516 136.833 344.41 136.67C343.305 136.488 342.262 136.398 341.284 136.398C339.58 136.398 338.248 136.615 337.287 137.05C336.326 137.485 335.846 138.219 335.846 139.252C335.846 139.742 336.009 140.177 336.335 140.557C336.68 140.92 337.16 141.264 337.776 141.591C338.393 141.899 339.127 142.207 339.979 142.515C340.849 142.805 341.809 143.113 342.861 143.439L344.845 144.065C346.513 144.572 348.008 145.189 349.331 145.914C350.655 146.62 351.769 147.463 352.676 148.442C353.6 149.403 354.307 150.508 354.796 151.759C355.286 153.01 355.53 154.433 355.53 156.028C355.53 157.895 355.231 159.598 354.633 161.139C354.053 162.662 353.138 163.967 351.887 165.054C350.636 166.142 349.032 166.985 347.075 167.583C345.135 168.181 342.797 168.48 340.06 168.48C337.631 168.48 335.212 168.28 332.801 167.882C330.408 167.483 327.989 166.785 325.542 165.788V156.816C327.88 158.012 330.145 158.891 332.339 159.453C334.55 159.997 336.725 160.269 338.864 160.269C340.622 160.269 341.9 159.988 342.697 159.426C343.513 158.864 343.921 158.085 343.921 157.088C343.921 156.49 343.767 155.982 343.459 155.565C343.169 155.13 342.688 154.732 342.018 154.369C341.365 154.007 340.504 153.644 339.435 153.282C338.365 152.901 337.069 152.475 335.547 152.004C334.024 151.551 332.611 150.98 331.306 150.291C330.019 149.602 328.904 148.777 327.961 147.817C327.019 146.838 326.276 145.705 325.732 144.418C325.206 143.131 324.943 141.663 324.943 140.014C324.943 138.31 325.243 136.751 325.841 135.337C326.439 133.924 327.354 132.718 328.587 131.721C329.819 130.706 331.378 129.918 333.263 129.356C335.166 128.794 337.423 128.513 340.033 128.513C341.066 128.513 342.163 128.558 343.323 128.649C344.483 128.74 345.661 128.876 346.857 129.057C348.072 129.238 349.268 129.474 350.446 129.764C351.624 130.054 352.739 130.398 353.79 130.797L353.382 139.225Z" fill="#A8ACFF"/>
<path d="M146.615 177.908H158.796V208.522H171.846V216.352H146.615V177.908ZM192.863 217.141C190.488 217.141 188.367 216.878 186.501 216.352C184.634 215.845 182.984 215.138 181.552 214.231C180.138 213.307 178.933 212.219 177.936 210.969C176.957 209.7 176.151 208.331 175.516 206.863C174.9 205.377 174.447 203.818 174.157 202.187C173.885 200.556 173.749 198.897 173.749 197.211C173.749 195.544 173.921 193.895 174.266 192.263C174.61 190.614 175.127 189.046 175.816 187.56C176.504 186.073 177.374 184.696 178.426 183.427C179.477 182.158 180.709 181.062 182.123 180.137C183.537 179.213 185.132 178.488 186.908 177.962C188.703 177.437 190.688 177.174 192.863 177.174C195.038 177.174 197.013 177.437 198.79 177.962C200.584 178.488 202.188 179.213 203.602 180.137C205.034 181.062 206.276 182.158 207.327 183.427C208.378 184.696 209.248 186.073 209.937 187.56C210.644 189.046 211.169 190.614 211.514 192.263C211.858 193.895 212.03 195.544 212.03 197.211C212.03 198.897 211.885 200.556 211.595 202.187C211.305 203.818 210.843 205.377 210.209 206.863C209.592 208.331 208.786 209.7 207.789 210.969C206.792 212.219 205.587 213.307 204.173 214.231C202.759 215.138 201.11 215.845 199.225 216.352C197.358 216.878 195.237 217.141 192.863 217.141ZM185.93 197.211C185.93 199.387 186.084 201.244 186.392 202.785C186.718 204.326 187.171 205.585 187.751 206.564C188.349 207.543 189.074 208.259 189.926 208.712C190.796 209.165 191.775 209.392 192.863 209.392C193.95 209.392 194.92 209.165 195.772 208.712C196.642 208.259 197.376 207.543 197.974 206.564C198.59 205.585 199.052 204.326 199.361 202.785C199.687 201.244 199.85 199.387 199.85 197.211C199.85 195.036 199.687 193.179 199.361 191.638C199.052 190.079 198.59 188.81 197.974 187.832C197.376 186.835 196.642 186.101 195.772 185.629C194.92 185.158 193.95 184.922 192.863 184.922C191.775 184.922 190.796 185.158 189.926 185.629C189.074 186.101 188.349 186.835 187.751 187.832C187.171 188.81 186.718 190.079 186.392 191.638C186.084 193.179 185.93 195.036 185.93 197.211ZM236.609 217.141C233.908 217.141 231.479 216.751 229.322 215.971C227.183 215.174 225.362 213.987 223.857 212.41C222.353 210.815 221.202 208.821 220.404 206.428C219.607 204.036 219.208 201.235 219.208 198.027V177.908H231.388V198.082C231.388 199.876 231.479 201.471 231.66 202.867C231.842 204.262 232.15 205.45 232.585 206.428C233.02 207.389 233.6 208.123 234.325 208.631C235.05 209.138 235.956 209.392 237.044 209.392C238.24 209.392 239.201 209.138 239.926 208.631C240.669 208.123 241.24 207.389 241.638 206.428C242.055 205.45 242.336 204.262 242.481 202.867C242.626 201.471 242.699 199.876 242.699 198.082V177.908H252.867V198.027C252.867 201.253 252.55 204.063 251.916 206.456C251.281 208.848 250.293 210.842 248.952 212.437C247.629 214.014 245.943 215.192 243.895 215.971C241.865 216.751 239.436 217.141 236.609 217.141ZM262.166 177.908H273.938L288.565 197.211V177.908H297.864V216.352H285.792L271.382 195.906V216.352H262.166V177.908ZM326.085 217.141C324.092 217.141 322.188 216.914 320.376 216.461C318.563 216.026 316.878 215.391 315.319 214.558C313.76 213.724 312.346 212.709 311.077 211.513C309.827 210.316 308.748 208.966 307.842 207.461C306.954 205.957 306.265 204.317 305.776 202.54C305.286 200.764 305.042 198.87 305.042 196.858C305.042 193.922 305.622 191.248 306.782 188.837C307.96 186.409 309.591 184.333 311.676 182.611C313.778 180.871 316.27 179.53 319.152 178.587C322.052 177.645 325.233 177.174 328.695 177.174C330.562 177.174 332.538 177.319 334.622 177.609C336.707 177.881 338.791 178.325 340.876 178.941L339.136 187.641C337.269 186.971 335.565 186.508 334.024 186.255C332.484 185.983 330.997 185.847 329.565 185.847C327.662 185.847 325.949 186.119 324.427 186.662C322.904 187.188 321.608 187.931 320.539 188.892C319.47 189.853 318.645 191.022 318.065 192.399C317.503 193.759 317.222 195.263 317.222 196.912C317.222 198.743 317.412 200.374 317.793 201.806C318.174 203.238 318.763 204.453 319.56 205.45C320.358 206.446 321.364 207.208 322.578 207.733C323.811 208.259 325.27 208.522 326.955 208.522H330.435V200.556L324.345 201.371V194.601H340.876V212.981C339.535 213.778 338.239 214.449 336.988 214.993C335.737 215.518 334.505 215.944 333.29 216.27C332.076 216.579 330.871 216.796 329.674 216.923C328.496 217.068 327.3 217.141 326.085 217.141ZM349.25 177.908H376.221V185.031H361.43V193.16H374.481V200.121H361.43V208.522H376.221V216.352H349.25V177.908Z" fill="#A8ACFF"/>
</svg>
