<svg width="120" height="79" viewBox="0 0 120 79" fill="none" xmlns="http://www.w3.org/2000/svg">
<path d="M85.8762 17.8965C97.176 17.8965 106.336 27.0568 106.336 38.3567C106.336 45.4317 102.745 51.6667 97.2859 55.3406C95.7344 56.3847 94.8575 58.2781 95.4168 60.0626L96.6323 63.9407C97.9394 68.1111 92.6753 71.1515 89.7161 67.9354L84.2008 61.9404C82.3693 59.9497 79.7878 58.8169 77.0828 58.8169H29.6206C18.3207 58.8169 9.16035 49.6566 9.16035 38.3567C9.16035 27.0568 18.3207 17.8965 29.6206 17.8965L85.8762 17.8965Z" fill="#A8ACFF"/>
<line x1="21.1157" y1="6.26446" x2="21.1157" y2="34.5114" stroke="#333ABD" stroke-width="12.5289" stroke-linecap="round"/>
<line x1="35.0862" y1="20.8074" x2="6.83923" y2="20.8074" stroke="#333ABD" stroke-width="12.5289" stroke-linecap="round"/>
<path d="M27.3806 10.861C27.38 10.7887 27.38 10.7149 27.3806 10.6396V10.861C27.4022 13.3847 28.186 14.1132 30.7515 14.1235H30.8642C30.8262 14.1237 30.7887 14.1237 30.7515 14.1235H27.3806V10.861Z" fill="#333ABD"/>
<path d="M27.3806 29.8739C27.38 29.9462 27.38 30.02 27.3806 30.0952V29.8739C27.4022 27.3502 28.186 26.6217 30.7515 26.6113H30.8642C30.8262 26.6112 30.7887 26.6112 30.7515 26.6113H27.3806V29.8739Z" fill="#333ABD"/>
<path d="M14.901 10.861C14.9016 10.7887 14.9016 10.7149 14.901 10.6396V10.861C14.8795 13.3847 14.0957 14.1132 11.5302 14.1235H11.4175C11.4554 14.1237 11.493 14.1237 11.5302 14.1235H14.901V10.861Z" fill="#333ABD"/>
<path d="M14.901 29.8739C14.9016 29.9462 14.9016 30.02 14.901 30.0952V29.8739C14.8795 27.3502 14.0957 26.6217 11.5302 26.6113H11.4175C11.4554 26.6112 11.493 26.6112 11.5302 26.6113H14.901V29.8739Z" fill="#333ABD"/>
<path d="M33.6609 29.6622H37.0185C37.6006 29.6622 38.111 29.6991 38.5496 29.7729C38.9924 29.8426 39.3757 29.9431 39.6996 30.0742C40.0234 30.2054 40.292 30.3633 40.5051 30.5477C40.7224 30.7322 40.8946 30.9352 41.0217 31.1565C41.1529 31.3738 41.2451 31.6075 41.2984 31.8576C41.3517 32.1076 41.3783 32.3659 41.3783 32.6324C41.3783 32.8579 41.3517 33.0833 41.2984 33.3088C41.2492 33.5343 41.1631 33.7495 41.0401 33.9545C40.9212 34.1595 40.7614 34.3501 40.5605 34.5264C40.3596 34.7027 40.1116 34.8564 39.8164 34.9876C39.5253 35.1188 39.1789 35.2213 38.7772 35.295C38.3795 35.3688 37.9204 35.4057 37.3997 35.4057C37.3259 35.4057 37.2337 35.4057 37.123 35.4057C37.0123 35.4016 36.9037 35.3955 36.7971 35.3873L36.4158 35.3627V38.3574H33.6609V29.6622ZM36.4158 34.0283H37.0492C37.3444 34.0283 37.5924 33.9934 37.7933 33.9237C37.9942 33.8499 38.1561 33.7516 38.2791 33.6286C38.4021 33.5056 38.4902 33.36 38.5435 33.192C38.5968 33.0239 38.6234 32.8435 38.6234 32.6508C38.6234 32.3434 38.5845 32.0892 38.5066 31.8883C38.4287 31.6874 38.318 31.5275 38.1745 31.4087C38.0352 31.2857 37.8691 31.1996 37.6764 31.1504C37.4838 31.1012 37.2747 31.0766 37.0492 31.0766H36.4158V34.0283ZM42.8972 29.6622H46.8082C47.4273 29.6622 47.9725 29.7442 48.444 29.9082C48.9154 30.0681 49.3069 30.2813 49.6185 30.5477C49.9341 30.8101 50.1719 31.1094 50.3318 31.4455C50.4917 31.7776 50.5716 32.1138 50.5716 32.454C50.5716 32.7205 50.545 32.9849 50.4917 33.2473C50.4384 33.5056 50.3441 33.7516 50.2088 33.9852C50.0735 34.2148 49.887 34.4239 49.6492 34.6125C49.4156 34.7969 49.1163 34.9466 48.7514 35.0614C48.8047 35.2336 48.8949 35.4467 49.022 35.7009C49.1491 35.9551 49.2967 36.2297 49.4647 36.5249C49.6328 36.8201 49.8132 37.1255 50.0059 37.4412C50.1986 37.7568 50.3872 38.0623 50.5716 38.3574H47.4232C47.2469 37.9598 47.0665 37.515 46.882 37.023C46.6975 36.527 46.55 35.9879 46.4393 35.4057H45.6521V38.3574H42.8972V29.6622ZM46.1195 34.0283C46.4311 34.0283 46.6934 33.9873 46.9066 33.9053C47.1239 33.8233 47.3002 33.7167 47.4355 33.5855C47.5707 33.4543 47.6671 33.3068 47.7245 33.1428C47.786 32.9788 47.8167 32.8148 47.8167 32.6508C47.8167 32.327 47.7716 32.0625 47.6814 31.8576C47.5912 31.6526 47.4683 31.4927 47.3125 31.3779C47.1567 31.259 46.9763 31.1791 46.7713 31.1381C46.5664 31.0971 46.347 31.0766 46.1134 31.0766H45.6521V34.0283H46.1195ZM59.3222 38.3574H56.0384L55.6326 36.5065H53.4741L53.0867 38.3574H50.8668L53.0806 29.6622H56.9301L59.3222 38.3574ZM54.581 31.0151L53.7386 35.0675H55.4973L54.7716 31.0151H54.581ZM65.9143 34.0283L68.0788 38.3574H64.7336L63.6267 35.0798L62.1386 38.3574H59.6173L61.7819 34.0283L59.6173 29.6622H62.9626L64.2908 32.7431L65.7175 29.6622H68.0788L65.9143 34.0283ZM69.3702 29.6622H72.1251V38.3574H69.3702V29.6622ZM80.4267 31.919C80.2587 31.8453 80.0619 31.7715 79.8364 31.6977C79.615 31.6198 79.3814 31.5501 79.1354 31.4886C78.8935 31.4271 78.6475 31.3779 78.3975 31.341C78.1474 31.3 77.9117 31.2795 77.6903 31.2795C77.3049 31.2795 77.0036 31.3287 76.7863 31.4271C76.569 31.5255 76.4604 31.6915 76.4604 31.9252C76.4604 32.0359 76.4973 32.1343 76.5711 32.2204C76.649 32.3024 76.7576 32.3803 76.897 32.454C77.0364 32.5237 77.2024 32.5934 77.3951 32.6631C77.5919 32.7287 77.8092 32.7984 78.0469 32.8722L78.4958 33.0136C78.873 33.1284 79.2112 33.2678 79.5105 33.4318C79.8098 33.5917 80.0619 33.7823 80.2669 34.0037C80.4759 34.221 80.6358 34.471 80.7465 34.7539C80.8572 35.0368 80.9125 35.3586 80.9125 35.7193C80.9125 36.1416 80.8449 36.527 80.7096 36.8754C80.5784 37.2198 80.3714 37.515 80.0885 37.7609C79.8057 38.0069 79.4428 38.1975 79.0001 38.3328C78.5614 38.4681 78.0326 38.5358 77.4136 38.5358C76.8642 38.5358 76.3169 38.4907 75.7717 38.4005C75.2305 38.3103 74.6832 38.1524 74.1298 37.927V35.8977C74.6586 36.1683 75.1711 36.3671 75.6671 36.4942C76.1673 36.6172 76.6592 36.6786 77.143 36.6786C77.5406 36.6786 77.8297 36.6151 78.01 36.488C78.1945 36.3609 78.2868 36.1847 78.2868 35.9592C78.2868 35.8239 78.2519 35.7091 78.1822 35.6148C78.1166 35.5164 78.008 35.4262 77.8563 35.3442C77.7087 35.2622 77.514 35.1803 77.2721 35.0983C77.0302 35.0122 76.7371 34.9158 76.3928 34.8092C76.0484 34.7068 75.7286 34.5776 75.4335 34.4218C75.1424 34.2661 74.8903 34.0795 74.6771 33.8622C74.4639 33.6409 74.2958 33.3846 74.1729 33.0936C74.054 32.8025 73.9945 32.4704 73.9945 32.0974C73.9945 31.712 74.0622 31.3595 74.1974 31.0397C74.3327 30.7199 74.5398 30.4473 74.8185 30.2218C75.0973 29.9923 75.4499 29.8139 75.8762 29.6868C76.3067 29.5597 76.8171 29.4962 77.4074 29.4962C77.6411 29.4962 77.8891 29.5065 78.1515 29.527C78.4139 29.5474 78.6803 29.5782 78.9509 29.6192C79.2256 29.6602 79.4961 29.7135 79.7626 29.7791C80.0291 29.8447 80.2812 29.9226 80.519 30.0127L80.4267 31.919Z" fill="#333ABD"/>
<path d="M33.6609 40.6681H36.4158V47.5923H39.3675V49.3633H33.6609V40.6681ZM44.121 49.5416C43.5839 49.5416 43.1043 49.4822 42.682 49.3633C42.2598 49.2485 41.8867 49.0886 41.5628 48.8836C41.2431 48.6746 40.9704 48.4286 40.745 48.1457C40.5236 47.8587 40.3412 47.5492 40.1977 47.2172C40.0583 46.881 39.9558 46.5284 39.8902 46.1595C39.8287 45.7905 39.798 45.4154 39.798 45.0341C39.798 44.657 39.8369 44.2839 39.9148 43.915C39.9927 43.5419 40.1095 43.1873 40.2653 42.8511C40.4211 42.515 40.6179 42.2034 40.8557 41.9164C41.0934 41.6294 41.3722 41.3814 41.692 41.1723C42.0117 40.9633 42.3725 40.7993 42.7743 40.6804C43.1801 40.5615 43.629 40.5021 44.121 40.5021C44.6129 40.5021 45.0598 40.5615 45.4615 40.6804C45.8674 40.7993 46.2302 40.9633 46.55 41.1723C46.8738 41.3814 47.1546 41.6294 47.3924 41.9164C47.6302 42.2034 47.827 42.515 47.9828 42.8511C48.1426 43.1873 48.2615 43.5419 48.3394 43.915C48.4173 44.2839 48.4563 44.657 48.4563 45.0341C48.4563 45.4154 48.4235 45.7905 48.3579 46.1595C48.2923 46.5284 48.1877 46.881 48.0442 47.2172C47.9049 47.5492 47.7224 47.8587 47.497 48.1457C47.2715 48.4286 46.9989 48.6746 46.6791 48.8836C46.3593 49.0886 45.9863 49.2485 45.5599 49.3633C45.1377 49.4822 44.658 49.5416 44.121 49.5416ZM42.5529 45.0341C42.5529 45.5261 42.5877 45.9463 42.6574 46.2948C42.7312 46.6432 42.8337 46.9281 42.9649 47.1495C43.1002 47.3709 43.2642 47.5328 43.4568 47.6353C43.6536 47.7378 43.875 47.789 44.121 47.789C44.3669 47.789 44.5863 47.7378 44.7789 47.6353C44.9757 47.5328 45.1418 47.3709 45.277 47.1495C45.4164 46.9281 45.521 46.6432 45.5907 46.2948C45.6644 45.9463 45.7013 45.5261 45.7013 45.0341C45.7013 44.5422 45.6644 44.122 45.5907 43.7735C45.521 43.421 45.4164 43.134 45.277 42.9126C45.1418 42.6871 44.9757 42.5211 44.7789 42.4145C44.5863 42.3079 44.3669 42.2546 44.121 42.2546C43.875 42.2546 43.6536 42.3079 43.4568 42.4145C43.2642 42.5211 43.1002 42.6871 42.9649 42.9126C42.8337 43.134 42.7312 43.421 42.6574 43.7735C42.5877 44.122 42.5529 44.5422 42.5529 45.0341ZM54.0153 49.5416C53.4044 49.5416 52.8551 49.4535 52.3672 49.2772C51.8835 49.0968 51.4715 48.8283 51.1312 48.4716C50.791 48.1109 50.5306 47.6599 50.3503 47.1188C50.1699 46.5776 50.0797 45.9442 50.0797 45.2186V40.6681H52.8346V45.2309C52.8346 45.6368 52.8551 45.9975 52.8961 46.3132C52.9371 46.6289 53.0068 46.8974 53.1052 47.1188C53.2036 47.336 53.3347 47.5021 53.4987 47.6169C53.6627 47.7317 53.8677 47.789 54.1137 47.789C54.3842 47.789 54.6015 47.7317 54.7655 47.6169C54.9336 47.5021 55.0627 47.336 55.1529 47.1188C55.2472 46.8974 55.3107 46.6289 55.3435 46.3132C55.3763 45.9975 55.3927 45.6368 55.3927 45.2309V40.6681H57.6926V45.2186C57.6926 45.9483 57.6208 46.5838 57.4774 47.1249C57.3339 47.6661 57.1104 48.117 56.8071 48.4778C56.5078 48.8344 56.1265 49.1009 55.6633 49.2772C55.2041 49.4535 54.6548 49.5416 54.0153 49.5416ZM59.7957 40.6681H62.4583L65.7667 45.0341V40.6681H67.8698V49.3633H65.1395L61.8803 44.739V49.3633H59.7957V40.6681ZM74.2528 49.5416C73.8018 49.5416 73.3714 49.4904 72.9614 49.3879C72.5515 49.2895 72.1702 49.146 71.8176 48.9574C71.4651 48.7688 71.1453 48.5393 70.8583 48.2687C70.5755 47.9981 70.3316 47.6927 70.1266 47.3524C69.9257 47.0122 69.7699 46.6412 69.6592 46.2394C69.5485 45.8377 69.4932 45.4092 69.4932 44.9542C69.4932 44.2901 69.6244 43.6854 69.8868 43.1401C70.1532 42.5908 70.5222 42.1214 70.9936 41.7319C71.4692 41.3384 72.0329 41.035 72.6847 40.8218C73.3406 40.6087 74.0601 40.5021 74.8431 40.5021C75.2654 40.5021 75.7122 40.5349 76.1837 40.6005C76.6551 40.6619 77.1266 40.7624 77.598 40.9018L77.2045 42.8696C76.7822 42.7179 76.3969 42.6133 76.0484 42.5559C75.6999 42.4945 75.3638 42.4637 75.0399 42.4637C74.6095 42.4637 74.222 42.5252 73.8777 42.6482C73.5333 42.7671 73.2402 42.9352 72.9983 43.1524C72.7564 43.3697 72.5699 43.6341 72.4387 43.9457C72.3116 44.2532 72.2481 44.5934 72.2481 44.9665C72.2481 45.3805 72.2911 45.7495 72.3772 46.0734C72.4633 46.3972 72.5966 46.6719 72.7769 46.8974C72.9573 47.1229 73.1849 47.295 73.4595 47.4139C73.7383 47.5328 74.0683 47.5923 74.4496 47.5923H75.2367V45.7905L73.8592 45.975V44.4438H77.598V48.6008C77.2947 48.7811 77.0016 48.9328 76.7187 49.0558C76.4358 49.1747 76.157 49.271 75.8824 49.3448C75.6077 49.4145 75.3351 49.4637 75.0645 49.4924C74.798 49.5252 74.5275 49.5416 74.2528 49.5416ZM79.492 40.6681H85.5922V42.2792H82.247V44.1179H85.1986V45.6921H82.247V47.5923H85.5922V49.3633H79.492V40.6681Z" fill="#333ABD"/>
</svg>
